<?xml version="1.0" encoding="utf-8"?>
<!-- Generator: Adobe Illustrator 23.0.0, SVG Export Plug-In . SVG Version: 6.00 Build 0)  -->
<svg version="1.1" xmlns="http://www.w3.org/2000/svg" xmlns:xlink="http://www.w3.org/1999/xlink" x="0px" y="0px"
	 viewBox="0 0 396.9 396.9" style="enable-background:new 0 0 396.9 396.9;" xml:space="preserve">
<style type="text/css">
	.st0{display:none;}
	.st1{fill:white;}
</style>
<g id="Layer_2" class="st0">
</g>
<g id="Layer_1">
	<path class="st1" d="M295.7,239.1c-2.1-9.9-5.3-22.5-10.5-36.5c-10.3-28-30.2-67.2-68-104c2.1,10.2,5.5,23.3,11,38
		C238.6,164.2,258.5,202.8,295.7,239.1z"/>
	<g>
		<path class="st1" d="M208.3,143.1c-5.6-15.1-9.2-28.5-11.4-39.2c-0.6,0-1.3,0.1-1.9,0.1c-1.8,0-3.7-0.1-5.4-0.4l-79.4,144.7
			c3.6,4.1,6.3,9.1,7.8,14.6h161.6c0.7-2.6,1.7-5.1,2.9-7.4C241.2,215.9,219.5,173.4,208.3,143.1z"/>
		<path class="st1" d="M199.1,14.7C96.6,14.7,13.5,97.8,13.5,200.3S96.6,386,199.1,386c102.5,0,185.6-83.1,185.6-185.6
			S301.7,14.7,199.1,14.7z M314.6,308.6c-16.1,0-29.7-10.4-34.5-24.8H117.2c-4.8,14.4-18.5,24.8-34.5,24.8
			c-20.1,0-36.4-16.3-36.4-36.4c0-20.1,16.3-36.4,36.4-36.4c3.3,0,6.5,0.4,9.6,1.3l78.2-142.6c-7.4-6.7-12-16.3-12-27
			c0-20.1,16.3-36.4,36.4-36.4c20.1,0,36.4,16.3,36.4,36.4c0,4.6-0.9,9.1-2.5,13.1c42.8,40.6,65.1,84.5,76.4,115.6
			c5.6,15.3,9.1,28.8,11.2,39.6c19.2,1,34.6,16.9,34.6,36.4C351,292.3,334.8,308.6,314.6,308.6z"/>
	</g>
</g>
</svg>
