<?xml version="1.0" standalone="no"?>
<!DOCTYPE svg PUBLIC "-//W3C//DTD SVG 20010904//EN"
 "http://www.w3.org/TR/2001/REC-SVG-20010904/DTD/svg10.dtd">
<svg version="1.0" xmlns="http://www.w3.org/2000/svg"
 width="700.000000pt" height="700.000000pt" viewBox="0 0 700.000000 700.000000"
 preserveAspectRatio="xMidYMid meet">
<metadata>
Created by potrace 1.14, written by Peter Selinger 2001-2017
</metadata>
<g transform="translate(0.000000,700.000000) scale(0.100000,-0.100000)"
fill="#000000" stroke="none">
<path d="M3309 6736 c-2 -2 -46 -7 -97 -10 -51 -3 -103 -8 -115 -11 -12 -2
-40 -6 -62 -9 -201 -25 -503 -106 -731 -196 -331 -132 -681 -344 -939 -571
-109 -95 -321 -315 -390 -403 -16 -21 -40 -50 -53 -65 -45 -51 -232 -337 -282
-431 -138 -261 -223 -473 -295 -743 -14 -53 -28 -107 -30 -120 -3 -12 -9 -44
-15 -72 -11 -58 -17 -91 -26 -154 -4 -25 -8 -53 -9 -62 -2 -9 -6 -49 -10 -90
-3 -41 -8 -96 -11 -124 -5 -55 -4 -341 1 -420 16 -249 63 -505 137 -750 39
-127 121 -341 165 -425 18 -36 33 -68 33 -72 0 -14 137 -248 203 -348 172
-259 356 -466 617 -695 81 -71 407 -305 424 -305 2 0 43 -23 92 -51 240 -139
634 -291 864 -334 14 -3 36 -7 50 -10 128 -28 274 -50 413 -62 104 -10 461 -9
547 1 36 4 88 9 115 12 28 2 61 6 75 9 14 3 41 7 60 10 506 81 1007 294 1426
606 217 162 441 378 604 584 418 527 666 1165 707 1820 11 174 5 493 -12 584
-3 22 -18 131 -20 156 -1 11 -5 29 -8 40 -3 11 -9 40 -12 65 -11 74 -73 311
-111 421 -171 499 -434 917 -804 1282 -341 337 -715 577 -1155 742 -102 38
-307 101 -359 111 -16 3 -32 6 -35 8 -3 2 -24 7 -46 10 -22 4 -56 11 -75 16
-19 5 -53 11 -75 14 -22 4 -51 8 -65 11 -14 2 -47 7 -75 11 -27 3 -63 7 -80
10 -41 6 -531 15 -536 10z m270 -300 c187 -45 348 -172 429 -336 23 -47 48
-112 55 -146 19 -81 15 -254 -7 -317 -10 -27 -16 -52 -14 -57 2 -5 64 -71 138
-147 287 -295 502 -566 722 -913 19 -30 46 -74 61 -97 15 -24 27 -44 27 -46 0
-2 23 -44 51 -93 172 -298 346 -716 448 -1072 36 -127 49 -177 81 -319 10 -43
16 -53 33 -54 198 -7 420 -159 515 -350 23 -47 44 -95 46 -106 3 -11 9 -36 14
-54 14 -52 12 -201 -4 -269 -31 -134 -99 -247 -205 -343 -83 -76 -187 -125
-324 -153 -34 -7 -137 -6 -190 1 -212 29 -426 195 -500 388 l-16 42 -1434 0
c-788 0 -1435 -3 -1437 -5 -2 -3 -21 -41 -43 -85 -44 -90 -157 -212 -235 -256
-176 -97 -355 -117 -535 -57 -311 102 -495 432 -420 753 18 79 71 195 110 240
118 138 221 204 375 241 56 14 258 13 291 -1 13 -5 26 10 57 67 22 40 102 186
177 323 76 138 151 275 168 305 29 54 55 102 115 210 99 180 304 555 334 610
19 36 47 85 60 110 107 193 146 263 176 320 19 36 48 86 63 113 16 26 29 49
29 52 0 4 33 64 181 332 16 29 29 56 29 62 0 5 -17 28 -37 51 -195 214 -221
536 -64 776 95 146 218 231 411 284 36 9 225 7 269 -4z"/>
<path d="M3841 5213 c141 -607 359 -1110 702 -1623 55 -82 238 -330 273 -370
12 -14 63 -72 112 -130 122 -142 282 -308 282 -291 0 18 -55 236 -91 361 -119
410 -346 889 -606 1280 -124 186 -357 487 -452 581 -14 15 -68 72 -120 128
-52 55 -97 101 -101 101 -4 0 -3 -17 1 -37z"/>
<path d="M3272 5042 c-38 -70 -134 -244 -212 -387 -78 -143 -155 -282 -170
-310 -15 -27 -88 -160 -162 -295 -74 -135 -177 -321 -228 -415 -51 -93 -104
-190 -118 -215 -14 -25 -37 -67 -52 -95 -15 -27 -36 -66 -47 -85 -11 -20 -39
-71 -63 -115 -24 -44 -76 -139 -116 -212 -41 -73 -74 -135 -74 -138 0 -2 -18
-34 -40 -70 -22 -36 -40 -70 -40 -75 0 -5 20 -40 44 -77 23 -37 51 -90 61
-118 10 -27 22 -54 27 -60 6 -7 495 -10 1427 -11 l1418 0 12 30 c7 17 19 46
27 65 l15 34 -88 90 c-144 147 -154 157 -257 277 -135 157 -127 148 -241 300
-85 114 -206 289 -252 365 -164 271 -247 429 -377 717 -88 196 -220 598 -266
808 -26 120 -22 116 -94 118 l-64 2 -70 -128z"/>
</g>
</svg>
