<?xml version="1.0" encoding="UTF-8" standalone="no"?>
<!DOCTYPE svg PUBLIC "-//W3C//DTD SVG 1.1//EN"
 "http://www.w3.org/Graphics/SVG/1.1/DTD/svg11.dtd">
<!-- Generated by graphviz version 2.44.1 (20200629.0846)
 -->
<!-- Title: dependencies Pages: 1 -->
<svg width="3016pt" height="284pt"
 viewBox="0.00 0.00 3016.00 284.00" xmlns="http://www.w3.org/2000/svg" xmlns:xlink="http://www.w3.org/1999/xlink">
<g id="graph0" class="graph" transform="scale(1 1) rotate(0) translate(4 280)">
<title>dependencies</title>
<polygon fill="white" stroke="transparent" points="-4,4 -4,-280 3012,-280 3012,4 -4,4"/>
<text text-anchor="start" x="1483.01" y="-42.4" font-family="sans-serif" font-weight="bold" font-size="14.00">Legend</text>
<polygon fill="#ffffb3" stroke="transparent" points="1270,-10 1270,-30 1290,-30 1290,-10 1270,-10"/>
<text text-anchor="start" x="1293.63" y="-15.4" font-family="sans-serif" font-size="14.00"> &#160;Declarations</text>
<polygon fill="#8dd3c7" stroke="transparent" points="1383,-10 1383,-30 1403,-30 1403,-10 1383,-10"/>
<text text-anchor="start" x="1406.73" y="-15.4" font-family="sans-serif" font-size="14.00"> &#160;Module</text>
<polygon fill="#80b1d3" stroke="transparent" points="1469,-10 1469,-30 1489,-30 1489,-10 1469,-10"/>
<text text-anchor="start" x="1492.78" y="-15.4" font-family="sans-serif" font-size="14.00"> &#160;Bootstrap</text>
<polygon fill="#fdb462" stroke="transparent" points="1566,-10 1566,-30 1586,-30 1586,-10 1566,-10"/>
<text text-anchor="start" x="1589.67" y="-15.4" font-family="sans-serif" font-size="14.00"> &#160;Providers</text>
<polygon fill="#fb8072" stroke="transparent" points="1662,-10 1662,-30 1682,-30 1682,-10 1662,-10"/>
<text text-anchor="start" x="1685.73" y="-15.4" font-family="sans-serif" font-size="14.00"> &#160;Exports</text>
<g id="clust1" class="cluster">
<title>cluster_AppModule</title>
<polygon fill="none" stroke="black" stroke-dasharray="1,5" points="8,-70 8,-268 3000,-268 3000,-70 8,-70"/>
</g>
<g id="clust2" class="cluster">
<title>cluster_AppModule_declarations</title>
<polygon fill="none" stroke="black" points="293,-78 293,-130 2992,-130 2992,-78 293,-78"/>
</g>
<g id="clust21" class="cluster">
<title>cluster_AppModule_imports</title>
<polygon fill="none" stroke="black" points="16,-78 16,-130 285,-130 285,-78 16,-78"/>
</g>
<g id="clust23" class="cluster">
<title>cluster_AppModule_bootstrap</title>
<polygon fill="none" stroke="black" points="1401,-208 1401,-260 1525,-260 1525,-208 1401,-208"/>
</g>
<!-- AppComponent -->
<g id="node1" class="node">
<title>AppComponent</title>
<polygon fill="#ffffb3" stroke="black" points="2983.94,-122 2878.06,-122 2878.06,-86 2983.94,-86 2983.94,-122"/>
<text text-anchor="middle" x="2931" y="-99.8" font-family="Times,serif" font-size="14.00">AppComponent</text>
</g>
<!-- AppModule -->
<g id="node19" class="node">
<title>AppModule</title>
<polygon fill="#8dd3c7" stroke="black" points="1504.66,-187 1501.66,-191 1480.66,-191 1477.66,-187 1421.34,-187 1421.34,-151 1504.66,-151 1504.66,-187"/>
<text text-anchor="middle" x="1463" y="-164.8" font-family="Times,serif" font-size="14.00">AppModule</text>
</g>
<!-- AppComponent&#45;&gt;AppModule -->
<g id="edge1" class="edge">
<title>AppComponent&#45;&gt;AppModule</title>
<path fill="none" stroke="black" d="M2931,-122.15C2931,-145.76 2931,-184 2931,-184 2931,-184 1514.96,-184 1514.96,-184"/>
<polygon fill="black" stroke="black" points="1514.96,-180.5 1504.96,-184 1514.96,-187.5 1514.96,-180.5"/>
</g>
<!-- DashboardPage -->
<g id="node2" class="node">
<title>DashboardPage</title>
<polygon fill="#ffffb3" stroke="black" points="2859.85,-122 2756.15,-122 2756.15,-86 2859.85,-86 2859.85,-122"/>
<text text-anchor="middle" x="2808" y="-99.8" font-family="Times,serif" font-size="14.00">DashboardPage</text>
</g>
<!-- DashboardPage&#45;&gt;AppModule -->
<g id="edge2" class="edge">
<title>DashboardPage&#45;&gt;AppModule</title>
<path fill="none" stroke="black" d="M2808,-122.01C2808,-144.49 2808,-180 2808,-180 2808,-180 1514.73,-180 1514.73,-180"/>
<polygon fill="black" stroke="black" points="1514.73,-176.5 1504.73,-180 1514.73,-183.5 1514.73,-176.5"/>
</g>
<!-- ExportGraphBottomSheet -->
<g id="node3" class="node">
<title>ExportGraphBottomSheet</title>
<polygon fill="#ffffb3" stroke="black" points="2738.2,-122 2575.8,-122 2575.8,-86 2738.2,-86 2738.2,-122"/>
<text text-anchor="middle" x="2657" y="-99.8" font-family="Times,serif" font-size="14.00">ExportGraphBottomSheet</text>
</g>
<!-- ExportGraphBottomSheet&#45;&gt;AppModule -->
<g id="edge3" class="edge">
<title>ExportGraphBottomSheet&#45;&gt;AppModule</title>
<path fill="none" stroke="black" d="M2657,-122.04C2657,-143.66 2657,-177 2657,-177 2657,-177 1514.79,-177 1514.79,-177"/>
<polygon fill="black" stroke="black" points="1514.8,-173.5 1504.79,-177 1514.79,-180.5 1514.8,-173.5"/>
</g>
<!-- FeedbackSelectionComponent -->
<g id="node4" class="node">
<title>FeedbackSelectionComponent</title>
<polygon fill="#ffffb3" stroke="black" points="2557.57,-122 2370.43,-122 2370.43,-86 2557.57,-86 2557.57,-122"/>
<text text-anchor="middle" x="2464" y="-99.8" font-family="Times,serif" font-size="14.00">FeedbackSelectionComponent</text>
</g>
<!-- FeedbackSelectionComponent&#45;&gt;AppModule -->
<g id="edge4" class="edge">
<title>FeedbackSelectionComponent&#45;&gt;AppModule</title>
<path fill="none" stroke="black" d="M2464,-122.13C2464,-142.57 2464,-173 2464,-173 2464,-173 1514.74,-173 1514.74,-173"/>
<polygon fill="black" stroke="black" points="1514.74,-169.5 1504.74,-173 1514.74,-176.5 1514.74,-169.5"/>
</g>
<!-- FormulaSyntaxDialog -->
<g id="node5" class="node">
<title>FormulaSyntaxDialog</title>
<polygon fill="#ffffb3" stroke="black" points="2352.43,-122 2211.57,-122 2211.57,-86 2352.43,-86 2352.43,-122"/>
<text text-anchor="middle" x="2282" y="-99.8" font-family="Times,serif" font-size="14.00">FormulaSyntaxDialog</text>
</g>
<!-- FormulaSyntaxDialog&#45;&gt;AppModule -->
<g id="edge5" class="edge">
<title>FormulaSyntaxDialog&#45;&gt;AppModule</title>
<path fill="none" stroke="black" d="M2282,-122.11C2282,-141.34 2282,-169 2282,-169 2282,-169 1514.74,-169 1514.74,-169"/>
<polygon fill="black" stroke="black" points="1514.74,-165.5 1504.74,-169 1514.74,-172.5 1514.74,-165.5"/>
</g>
<!-- GraphComponent -->
<g id="node6" class="node">
<title>GraphComponent</title>
<polygon fill="#ffffb3" stroke="black" points="2194.31,-122 2077.69,-122 2077.69,-86 2194.31,-86 2194.31,-122"/>
<text text-anchor="middle" x="2136" y="-99.8" font-family="Times,serif" font-size="14.00">GraphComponent</text>
</g>
<!-- GraphComponent&#45;&gt;AppModule -->
<g id="edge6" class="edge">
<title>GraphComponent&#45;&gt;AppModule</title>
<path fill="none" stroke="black" d="M2136,-122.27C2136,-140.56 2136,-166 2136,-166 2136,-166 1514.84,-166 1514.84,-166"/>
<polygon fill="black" stroke="black" points="1514.84,-162.5 1504.84,-166 1514.84,-169.5 1514.84,-162.5"/>
</g>
<!-- GraphEditorComponent -->
<g id="node7" class="node">
<title>GraphEditorComponent</title>
<polygon fill="#ffffb3" stroke="black" points="2059.81,-122 1908.19,-122 1908.19,-86 2059.81,-86 2059.81,-122"/>
<text text-anchor="middle" x="1984" y="-99.8" font-family="Times,serif" font-size="14.00">GraphEditorComponent</text>
</g>
<!-- GraphEditorComponent&#45;&gt;AppModule -->
<g id="edge7" class="edge">
<title>GraphEditorComponent&#45;&gt;AppModule</title>
<path fill="none" stroke="black" d="M1984,-122.03C1984,-139.06 1984,-162 1984,-162 1984,-162 1514.75,-162 1514.75,-162"/>
<polygon fill="black" stroke="black" points="1514.75,-158.5 1504.75,-162 1514.75,-165.5 1514.75,-158.5"/>
</g>
<!-- GraphImportComponent -->
<g id="node8" class="node">
<title>GraphImportComponent</title>
<polygon fill="#ffffb3" stroke="black" points="1890.42,-122 1735.58,-122 1735.58,-86 1890.42,-86 1890.42,-122"/>
<text text-anchor="middle" x="1813" y="-99.8" font-family="Times,serif" font-size="14.00">GraphImportComponent</text>
</g>
<!-- GraphImportComponent&#45;&gt;AppModule -->
<g id="edge8" class="edge">
<title>GraphImportComponent&#45;&gt;AppModule</title>
<path fill="none" stroke="black" d="M1813,-122.01C1813,-138.05 1813,-159 1813,-159 1813,-159 1514.87,-159 1514.87,-159"/>
<polygon fill="black" stroke="black" points="1514.87,-155.5 1504.87,-159 1514.87,-162.5 1514.87,-155.5"/>
</g>
<!-- GraphListComponent -->
<g id="node9" class="node">
<title>GraphListComponent</title>
<polygon fill="#ffffb3" stroke="black" points="1718.09,-122 1579.91,-122 1579.91,-86 1718.09,-86 1718.09,-122"/>
<text text-anchor="middle" x="1649" y="-99.8" font-family="Times,serif" font-size="14.00">GraphListComponent</text>
</g>
<!-- GraphListComponent&#45;&gt;AppModule -->
<g id="edge9" class="edge">
<title>GraphListComponent&#45;&gt;AppModule</title>
<path fill="none" stroke="black" d="M1649,-122.12C1649,-136.78 1649,-155 1649,-155 1649,-155 1514.74,-155 1514.74,-155"/>
<polygon fill="black" stroke="black" points="1514.74,-151.5 1504.74,-155 1514.74,-158.5 1514.74,-151.5"/>
</g>
<!-- HomePage -->
<g id="node10" class="node">
<title>HomePage</title>
<polygon fill="#ffffb3" stroke="black" points="1561.92,-122 1484.08,-122 1484.08,-86 1561.92,-86 1561.92,-122"/>
<text text-anchor="middle" x="1523" y="-99.8" font-family="Times,serif" font-size="14.00">HomePage</text>
</g>
<!-- HomePage&#45;&gt;AppModule -->
<g id="edge10" class="edge">
<title>HomePage&#45;&gt;AppModule</title>
<path fill="none" stroke="black" d="M1494.56,-122.11C1494.56,-122.11 1494.56,-140.99 1494.56,-140.99"/>
<polygon fill="black" stroke="black" points="1491.06,-140.99 1494.56,-150.99 1498.06,-140.99 1491.06,-140.99"/>
</g>
<!-- HttpProgressDialog -->
<g id="node11" class="node">
<title>HttpProgressDialog</title>
<polygon fill="#ffffb3" stroke="black" points="1466.7,-122 1339.3,-122 1339.3,-86 1466.7,-86 1466.7,-122"/>
<text text-anchor="middle" x="1403" y="-99.8" font-family="Times,serif" font-size="14.00">HttpProgressDialog</text>
</g>
<!-- HttpProgressDialog&#45;&gt;AppModule -->
<g id="edge11" class="edge">
<title>HttpProgressDialog&#45;&gt;AppModule</title>
<path fill="none" stroke="black" d="M1443.89,-122.11C1443.89,-122.11 1443.89,-140.99 1443.89,-140.99"/>
<polygon fill="black" stroke="black" points="1440.39,-140.99 1443.89,-150.99 1447.39,-140.99 1440.39,-140.99"/>
</g>
<!-- LinkFormComponent -->
<g id="node12" class="node">
<title>LinkFormComponent</title>
<polygon fill="#ffffb3" stroke="black" points="1321.11,-122 1182.89,-122 1182.89,-86 1321.11,-86 1321.11,-122"/>
<text text-anchor="middle" x="1252" y="-99.8" font-family="Times,serif" font-size="14.00">LinkFormComponent</text>
</g>
<!-- LinkFormComponent&#45;&gt;AppModule -->
<g id="edge12" class="edge">
<title>LinkFormComponent&#45;&gt;AppModule</title>
<path fill="none" stroke="black" d="M1252,-122.12C1252,-136.78 1252,-155 1252,-155 1252,-155 1411.31,-155 1411.31,-155"/>
<polygon fill="black" stroke="black" points="1411.31,-158.5 1421.31,-155 1411.31,-151.5 1411.31,-158.5"/>
</g>
<!-- ModelCheckerPage -->
<g id="node13" class="node">
<title>ModelCheckerPage</title>
<polygon fill="#ffffb3" stroke="black" points="1165.4,-122 1038.6,-122 1038.6,-86 1165.4,-86 1165.4,-122"/>
<text text-anchor="middle" x="1102" y="-99.8" font-family="Times,serif" font-size="14.00">ModelCheckerPage</text>
</g>
<!-- ModelCheckerPage&#45;&gt;AppModule -->
<g id="edge13" class="edge">
<title>ModelCheckerPage&#45;&gt;AppModule</title>
<path fill="none" stroke="black" d="M1102,-122.01C1102,-138.05 1102,-159 1102,-159 1102,-159 1411.24,-159 1411.24,-159"/>
<polygon fill="black" stroke="black" points="1411.24,-162.5 1421.24,-159 1411.24,-155.5 1411.24,-162.5"/>
</g>
<!-- NodeFormComponent -->
<g id="node14" class="node">
<title>NodeFormComponent</title>
<polygon fill="#ffffb3" stroke="black" points="1020.99,-122 879.01,-122 879.01,-86 1020.99,-86 1020.99,-122"/>
<text text-anchor="middle" x="950" y="-99.8" font-family="Times,serif" font-size="14.00">NodeFormComponent</text>
</g>
<!-- NodeFormComponent&#45;&gt;AppModule -->
<g id="edge14" class="edge">
<title>NodeFormComponent&#45;&gt;AppModule</title>
<path fill="none" stroke="black" d="M950,-122.03C950,-139.06 950,-162 950,-162 950,-162 1411.02,-162 1411.02,-162"/>
<polygon fill="black" stroke="black" points="1411.02,-165.5 1421.02,-162 1411.02,-158.5 1411.02,-165.5"/>
</g>
<!-- ResultTreeDialog -->
<g id="node15" class="node">
<title>ResultTreeDialog</title>
<polygon fill="#ffffb3" stroke="black" points="860.52,-122 745.48,-122 745.48,-86 860.52,-86 860.52,-122"/>
<text text-anchor="middle" x="803" y="-99.8" font-family="Times,serif" font-size="14.00">ResultTreeDialog</text>
</g>
<!-- ResultTreeDialog&#45;&gt;AppModule -->
<g id="edge15" class="edge">
<title>ResultTreeDialog&#45;&gt;AppModule</title>
<path fill="none" stroke="black" d="M803,-122.27C803,-140.56 803,-166 803,-166 803,-166 1411.21,-166 1411.21,-166"/>
<polygon fill="black" stroke="black" points="1411.21,-169.5 1421.21,-166 1411.21,-162.5 1411.21,-169.5"/>
</g>
<!-- SaveGraphDialog -->
<g id="node16" class="node">
<title>SaveGraphDialog</title>
<polygon fill="#ffffb3" stroke="black" points="727.3,-122 610.7,-122 610.7,-86 727.3,-86 727.3,-122"/>
<text text-anchor="middle" x="669" y="-99.8" font-family="Times,serif" font-size="14.00">SaveGraphDialog</text>
</g>
<!-- SaveGraphDialog&#45;&gt;AppModule -->
<g id="edge16" class="edge">
<title>SaveGraphDialog&#45;&gt;AppModule</title>
<path fill="none" stroke="black" d="M669,-122.11C669,-141.34 669,-169 669,-169 669,-169 1411.15,-169 1411.15,-169"/>
<polygon fill="black" stroke="black" points="1411.15,-172.5 1421.15,-169 1411.15,-165.5 1411.15,-172.5"/>
</g>
<!-- SymbolEditorComponent -->
<g id="node17" class="node">
<title>SymbolEditorComponent</title>
<polygon fill="#ffffb3" stroke="black" points="592.89,-122 433.11,-122 433.11,-86 592.89,-86 592.89,-122"/>
<text text-anchor="middle" x="513" y="-99.8" font-family="Times,serif" font-size="14.00">SymbolEditorComponent</text>
</g>
<!-- SymbolEditorComponent&#45;&gt;AppModule -->
<g id="edge17" class="edge">
<title>SymbolEditorComponent&#45;&gt;AppModule</title>
<path fill="none" stroke="black" d="M513,-122.13C513,-142.57 513,-173 513,-173 513,-173 1411.26,-173 1411.26,-173"/>
<polygon fill="black" stroke="black" points="1411.26,-176.5 1421.26,-173 1411.26,-169.5 1411.26,-176.5"/>
</g>
<!-- TraceComponent -->
<g id="node18" class="node">
<title>TraceComponent</title>
<polygon fill="#ffffb3" stroke="black" points="414.69,-122 301.31,-122 301.31,-86 414.69,-86 414.69,-122"/>
<text text-anchor="middle" x="358" y="-99.8" font-family="Times,serif" font-size="14.00">TraceComponent</text>
</g>
<!-- TraceComponent&#45;&gt;AppModule -->
<g id="edge18" class="edge">
<title>TraceComponent&#45;&gt;AppModule</title>
<path fill="none" stroke="black" d="M358,-122.04C358,-143.66 358,-177 358,-177 358,-177 1411.03,-177 1411.03,-177"/>
<polygon fill="black" stroke="black" points="1411.03,-180.5 1421.03,-177 1411.03,-173.5 1411.03,-180.5"/>
</g>
<!-- AppComponent  -->
<g id="node22" class="node">
<title>AppComponent </title>
<polygon fill="#80b1d3" stroke="black" points="1517.44,-252 1408.56,-252 1408.56,-216 1517.44,-216 1517.44,-252"/>
<text text-anchor="middle" x="1463" y="-229.8" font-family="Times,serif" font-size="14.00">AppComponent </text>
</g>
<!-- AppModule&#45;&gt;AppComponent  -->
<g id="edge21" class="edge">
<title>AppModule&#45;&gt;AppComponent </title>
<path fill="none" stroke="black" stroke-dasharray="1,5" d="M1463,-187.11C1463,-187.11 1463,-205.99 1463,-205.99"/>
<polygon fill="black" stroke="black" points="1459.5,-205.99 1463,-215.99 1466.5,-205.99 1459.5,-205.99"/>
</g>
<!-- AppRoutingModule -->
<g id="node20" class="node">
<title>AppRoutingModule</title>
<polygon fill="#8dd3c7" stroke="black" points="277.27,-122 274.27,-126 253.27,-126 250.27,-122 148.73,-122 148.73,-86 277.27,-86 277.27,-122"/>
<text text-anchor="middle" x="213" y="-99.8" font-family="Times,serif" font-size="14.00">AppRoutingModule</text>
</g>
<!-- AppRoutingModule&#45;&gt;AppModule -->
<g id="edge19" class="edge">
<title>AppRoutingModule&#45;&gt;AppModule</title>
<path fill="none" stroke="black" d="M213,-122.01C213,-144.49 213,-180 213,-180 213,-180 1411.05,-180 1411.05,-180"/>
<polygon fill="black" stroke="black" points="1411.05,-183.5 1421.05,-180 1411.05,-176.5 1411.05,-183.5"/>
</g>
<!-- MaterialModule -->
<g id="node21" class="node">
<title>MaterialModule</title>
<polygon fill="#8dd3c7" stroke="black" points="130.47,-122 127.47,-126 106.47,-126 103.47,-122 23.53,-122 23.53,-86 130.47,-86 130.47,-122"/>
<text text-anchor="middle" x="77" y="-99.8" font-family="Times,serif" font-size="14.00">MaterialModule</text>
</g>
<!-- MaterialModule&#45;&gt;AppModule -->
<g id="edge20" class="edge">
<title>MaterialModule&#45;&gt;AppModule</title>
<path fill="none" stroke="black" d="M77,-122.15C77,-145.76 77,-184 77,-184 77,-184 1411.14,-184 1411.14,-184"/>
<polygon fill="black" stroke="black" points="1411.14,-187.5 1421.14,-184 1411.14,-180.5 1411.14,-187.5"/>
</g>
</g>
</svg>
