<?xml version="1.0" encoding="UTF-8" standalone="no"?>
<!DOCTYPE svg PUBLIC "-//W3C//DTD SVG 1.1//EN"
 "http://www.w3.org/Graphics/SVG/1.1/DTD/svg11.dtd">
<!-- Generated by graphviz version 2.47.0 (20210316.0004)
 -->
<!-- Title: dependencies Pages: 1 -->
<svg width="3182pt" height="284pt"
 viewBox="0.00 0.00 3182.00 284.00" xmlns="http://www.w3.org/2000/svg" xmlns:xlink="http://www.w3.org/1999/xlink">
<g id="graph0" class="graph" transform="scale(1 1) rotate(0) translate(4 280)">
<title>dependencies</title>
<polygon fill="white" stroke="transparent" points="-4,4 -4,-280 3178,-280 3178,4 -4,4"/>
<text text-anchor="start" x="1566.01" y="-42.4" font-family="sans-serif" font-weight="bold" font-size="14.00">Legend</text>
<polygon fill="#ffffb3" stroke="transparent" points="1353,-10 1353,-30 1373,-30 1373,-10 1353,-10"/>
<text text-anchor="start" x="1376.63" y="-15.4" font-family="sans-serif" font-size="14.00"> &#160;Declarations</text>
<polygon fill="#8dd3c7" stroke="transparent" points="1466,-10 1466,-30 1486,-30 1486,-10 1466,-10"/>
<text text-anchor="start" x="1489.73" y="-15.4" font-family="sans-serif" font-size="14.00"> &#160;Module</text>
<polygon fill="#80b1d3" stroke="transparent" points="1552,-10 1552,-30 1572,-30 1572,-10 1552,-10"/>
<text text-anchor="start" x="1575.78" y="-15.4" font-family="sans-serif" font-size="14.00"> &#160;Bootstrap</text>
<polygon fill="#fdb462" stroke="transparent" points="1649,-10 1649,-30 1669,-30 1669,-10 1649,-10"/>
<text text-anchor="start" x="1672.67" y="-15.4" font-family="sans-serif" font-size="14.00"> &#160;Providers</text>
<polygon fill="#fb8072" stroke="transparent" points="1745,-10 1745,-30 1765,-30 1765,-10 1745,-10"/>
<text text-anchor="start" x="1768.73" y="-15.4" font-family="sans-serif" font-size="14.00"> &#160;Exports</text>
<g id="clust1" class="cluster">
<title>cluster_AppModule</title>
<polygon fill="none" stroke="black" stroke-dasharray="1,5" points="8,-70 8,-268 3166,-268 3166,-70 8,-70"/>
</g>
<g id="clust2" class="cluster">
<title>cluster_AppModule_declarations</title>
<polygon fill="none" stroke="black" points="293,-78 293,-130 3158,-130 3158,-78 293,-78"/>
</g>
<g id="clust22" class="cluster">
<title>cluster_AppModule_imports</title>
<polygon fill="none" stroke="black" points="16,-78 16,-130 285,-130 285,-78 16,-78"/>
</g>
<g id="clust24" class="cluster">
<title>cluster_AppModule_bootstrap</title>
<polygon fill="none" stroke="black" points="1507,-208 1507,-260 1631,-260 1631,-208 1507,-208"/>
</g>
<!-- AppComponent -->
<g id="node1" class="node">
<title>AppComponent</title>
<polygon fill="#ffffb3" stroke="black" points="3149.94,-122 3044.06,-122 3044.06,-86 3149.94,-86 3149.94,-122"/>
<text text-anchor="middle" x="3097" y="-99.8" font-family="Times,serif" font-size="14.00">AppComponent</text>
</g>
<!-- AppModule -->
<g id="node20" class="node">
<title>AppModule</title>
<polygon fill="#8dd3c7" stroke="black" points="1610.66,-187 1607.66,-191 1586.66,-191 1583.66,-187 1527.34,-187 1527.34,-151 1610.66,-151 1610.66,-187"/>
<text text-anchor="middle" x="1569" y="-164.8" font-family="Times,serif" font-size="14.00">AppModule</text>
</g>
<!-- AppComponent&#45;&gt;AppModule -->
<g id="edge1" class="edge">
<title>AppComponent&#45;&gt;AppModule</title>
<path fill="none" stroke="black" d="M3097,-122.15C3097,-145.76 3097,-184 3097,-184 3097,-184 1620.66,-184 1620.66,-184"/>
<polygon fill="black" stroke="black" points="1620.66,-180.5 1610.66,-184 1620.66,-187.5 1620.66,-180.5"/>
</g>
<!-- DashboardPage -->
<g id="node2" class="node">
<title>DashboardPage</title>
<polygon fill="#ffffb3" stroke="black" points="3025.85,-122 2922.15,-122 2922.15,-86 3025.85,-86 3025.85,-122"/>
<text text-anchor="middle" x="2974" y="-99.8" font-family="Times,serif" font-size="14.00">DashboardPage</text>
</g>
<!-- DashboardPage&#45;&gt;AppModule -->
<g id="edge2" class="edge">
<title>DashboardPage&#45;&gt;AppModule</title>
<path fill="none" stroke="black" d="M2974,-122.25C2974,-145.02 2974,-181 2974,-181 2974,-181 1620.67,-181 1620.67,-181"/>
<polygon fill="black" stroke="black" points="1620.67,-177.5 1610.67,-181 1620.67,-184.5 1620.67,-177.5"/>
</g>
<!-- ExportGraphBottomSheet -->
<g id="node3" class="node">
<title>ExportGraphBottomSheet</title>
<polygon fill="#ffffb3" stroke="black" points="2904.2,-122 2741.8,-122 2741.8,-86 2904.2,-86 2904.2,-122"/>
<text text-anchor="middle" x="2823" y="-99.8" font-family="Times,serif" font-size="14.00">ExportGraphBottomSheet</text>
</g>
<!-- ExportGraphBottomSheet&#45;&gt;AppModule -->
<g id="edge3" class="edge">
<title>ExportGraphBottomSheet&#45;&gt;AppModule</title>
<path fill="none" stroke="black" d="M2823,-122.29C2823,-144.21 2823,-178 2823,-178 2823,-178 1620.72,-178 1620.72,-178"/>
<polygon fill="black" stroke="black" points="1620.72,-174.5 1610.72,-178 1620.72,-181.5 1620.72,-174.5"/>
</g>
<!-- FeedbackSelectionComponent -->
<g id="node4" class="node">
<title>FeedbackSelectionComponent</title>
<polygon fill="#ffffb3" stroke="black" points="2723.57,-122 2536.43,-122 2536.43,-86 2723.57,-86 2723.57,-122"/>
<text text-anchor="middle" x="2630" y="-99.8" font-family="Times,serif" font-size="14.00">FeedbackSelectionComponent</text>
</g>
<!-- FeedbackSelectionComponent&#45;&gt;AppModule -->
<g id="edge4" class="edge">
<title>FeedbackSelectionComponent&#45;&gt;AppModule</title>
<path fill="none" stroke="black" d="M2630,-122.03C2630,-142.77 2630,-174 2630,-174 2630,-174 1620.92,-174 1620.92,-174"/>
<polygon fill="black" stroke="black" points="1620.92,-170.5 1610.92,-174 1620.92,-177.5 1620.92,-170.5"/>
</g>
<!-- FormulaSyntaxDialog -->
<g id="node5" class="node">
<title>FormulaSyntaxDialog</title>
<polygon fill="#ffffb3" stroke="black" points="2518.43,-122 2377.57,-122 2377.57,-86 2518.43,-86 2518.43,-122"/>
<text text-anchor="middle" x="2448" y="-99.8" font-family="Times,serif" font-size="14.00">FormulaSyntaxDialog</text>
</g>
<!-- FormulaSyntaxDialog&#45;&gt;AppModule -->
<g id="edge5" class="edge">
<title>FormulaSyntaxDialog&#45;&gt;AppModule</title>
<path fill="none" stroke="black" d="M2448,-122.31C2448,-142.15 2448,-171 2448,-171 2448,-171 1620.8,-171 1620.8,-171"/>
<polygon fill="black" stroke="black" points="1620.8,-167.5 1610.8,-171 1620.8,-174.5 1620.8,-167.5"/>
</g>
<!-- GraphComponent -->
<g id="node6" class="node">
<title>GraphComponent</title>
<polygon fill="#ffffb3" stroke="black" points="2360.31,-122 2243.69,-122 2243.69,-86 2360.31,-86 2360.31,-122"/>
<text text-anchor="middle" x="2302" y="-99.8" font-family="Times,serif" font-size="14.00">GraphComponent</text>
</g>
<!-- GraphComponent&#45;&gt;AppModule -->
<g id="edge6" class="edge">
<title>GraphComponent&#45;&gt;AppModule</title>
<path fill="none" stroke="black" d="M2302,-122.17C2302,-141.09 2302,-168 2302,-168 2302,-168 1620.78,-168 1620.78,-168"/>
<polygon fill="black" stroke="black" points="1620.78,-164.5 1610.78,-168 1620.78,-171.5 1620.78,-164.5"/>
</g>
<!-- GraphEditorComponent -->
<g id="node7" class="node">
<title>GraphEditorComponent</title>
<polygon fill="#ffffb3" stroke="black" points="2225.81,-122 2074.19,-122 2074.19,-86 2225.81,-86 2225.81,-122"/>
<text text-anchor="middle" x="2150" y="-99.8" font-family="Times,serif" font-size="14.00">GraphEditorComponent</text>
</g>
<!-- GraphEditorComponent&#45;&gt;AppModule -->
<g id="edge7" class="edge">
<title>GraphEditorComponent&#45;&gt;AppModule</title>
<path fill="none" stroke="black" d="M2150,-122.3C2150,-140.27 2150,-165 2150,-165 2150,-165 1620.78,-165 1620.78,-165"/>
<polygon fill="black" stroke="black" points="1620.78,-161.5 1610.78,-165 1620.78,-168.5 1620.78,-161.5"/>
</g>
<!-- GraphImportComponent -->
<g id="node8" class="node">
<title>GraphImportComponent</title>
<polygon fill="#ffffb3" stroke="black" points="2056.42,-122 1901.58,-122 1901.58,-86 2056.42,-86 2056.42,-122"/>
<text text-anchor="middle" x="1979" y="-99.8" font-family="Times,serif" font-size="14.00">GraphImportComponent</text>
</g>
<!-- GraphImportComponent&#45;&gt;AppModule -->
<g id="edge8" class="edge">
<title>GraphImportComponent&#45;&gt;AppModule</title>
<path fill="none" stroke="black" d="M1979,-122.04C1979,-138.73 1979,-161 1979,-161 1979,-161 1620.95,-161 1620.95,-161"/>
<polygon fill="black" stroke="black" points="1620.95,-157.5 1610.95,-161 1620.95,-164.5 1620.95,-157.5"/>
</g>
<!-- GraphListComponent -->
<g id="node9" class="node">
<title>GraphListComponent</title>
<polygon fill="#ffffb3" stroke="black" points="1884.09,-122 1745.91,-122 1745.91,-86 1884.09,-86 1884.09,-122"/>
<text text-anchor="middle" x="1815" y="-99.8" font-family="Times,serif" font-size="14.00">GraphListComponent</text>
</g>
<!-- GraphListComponent&#45;&gt;AppModule -->
<g id="edge9" class="edge">
<title>GraphListComponent&#45;&gt;AppModule</title>
<path fill="none" stroke="black" d="M1815,-122.28C1815,-137.95 1815,-158 1815,-158 1815,-158 1620.73,-158 1620.73,-158"/>
<polygon fill="black" stroke="black" points="1620.73,-154.5 1610.73,-158 1620.73,-161.5 1620.73,-154.5"/>
</g>
<!-- HomePage -->
<g id="node10" class="node">
<title>HomePage</title>
<polygon fill="#ffffb3" stroke="black" points="1727.92,-122 1650.08,-122 1650.08,-86 1727.92,-86 1727.92,-122"/>
<text text-anchor="middle" x="1689" y="-99.8" font-family="Times,serif" font-size="14.00">HomePage</text>
</g>
<!-- HomePage&#45;&gt;AppModule -->
<g id="edge10" class="edge">
<title>HomePage&#45;&gt;AppModule</title>
<path fill="none" stroke="black" d="M1689,-122.12C1689,-136.78 1689,-155 1689,-155 1689,-155 1620.97,-155 1620.97,-155"/>
<polygon fill="black" stroke="black" points="1620.97,-151.5 1610.97,-155 1620.97,-158.5 1620.97,-151.5"/>
</g>
<!-- HttpProgressDialog -->
<g id="node11" class="node">
<title>HttpProgressDialog</title>
<polygon fill="#ffffb3" stroke="black" points="1632.7,-122 1505.3,-122 1505.3,-86 1632.7,-86 1632.7,-122"/>
<text text-anchor="middle" x="1569" y="-99.8" font-family="Times,serif" font-size="14.00">HttpProgressDialog</text>
</g>
<!-- HttpProgressDialog&#45;&gt;AppModule -->
<g id="edge11" class="edge">
<title>HttpProgressDialog&#45;&gt;AppModule</title>
<path fill="none" stroke="black" d="M1569,-122.11C1569,-122.11 1569,-140.99 1569,-140.99"/>
<polygon fill="black" stroke="black" points="1565.5,-140.99 1569,-150.99 1572.5,-140.99 1565.5,-140.99"/>
</g>
<!-- LinkFormComponent -->
<g id="node12" class="node">
<title>LinkFormComponent</title>
<polygon fill="#ffffb3" stroke="black" points="1487.11,-122 1348.89,-122 1348.89,-86 1487.11,-86 1487.11,-122"/>
<text text-anchor="middle" x="1418" y="-99.8" font-family="Times,serif" font-size="14.00">LinkFormComponent</text>
</g>
<!-- LinkFormComponent&#45;&gt;AppModule -->
<g id="edge12" class="edge">
<title>LinkFormComponent&#45;&gt;AppModule</title>
<path fill="none" stroke="black" d="M1418,-122.12C1418,-136.78 1418,-155 1418,-155 1418,-155 1517.34,-155 1517.34,-155"/>
<polygon fill="black" stroke="black" points="1517.34,-158.5 1527.34,-155 1517.34,-151.5 1517.34,-158.5"/>
</g>
<!-- ModelCheckerPage -->
<g id="node13" class="node">
<title>ModelCheckerPage</title>
<polygon fill="#ffffb3" stroke="black" points="1331.4,-122 1204.6,-122 1204.6,-86 1331.4,-86 1331.4,-122"/>
<text text-anchor="middle" x="1268" y="-99.8" font-family="Times,serif" font-size="14.00">ModelCheckerPage</text>
</g>
<!-- ModelCheckerPage&#45;&gt;AppModule -->
<g id="edge13" class="edge">
<title>ModelCheckerPage&#45;&gt;AppModule</title>
<path fill="none" stroke="black" d="M1268,-122.28C1268,-137.95 1268,-158 1268,-158 1268,-158 1517.15,-158 1517.15,-158"/>
<polygon fill="black" stroke="black" points="1517.15,-161.5 1527.15,-158 1517.15,-154.5 1517.15,-161.5"/>
</g>
<!-- NodeFormComponent -->
<g id="node14" class="node">
<title>NodeFormComponent</title>
<polygon fill="#ffffb3" stroke="black" points="1186.99,-122 1045.01,-122 1045.01,-86 1186.99,-86 1186.99,-122"/>
<text text-anchor="middle" x="1116" y="-99.8" font-family="Times,serif" font-size="14.00">NodeFormComponent</text>
</g>
<!-- NodeFormComponent&#45;&gt;AppModule -->
<g id="edge14" class="edge">
<title>NodeFormComponent&#45;&gt;AppModule</title>
<path fill="none" stroke="black" d="M1116,-122.04C1116,-138.73 1116,-161 1116,-161 1116,-161 1517.19,-161 1517.19,-161"/>
<polygon fill="black" stroke="black" points="1517.19,-164.5 1527.19,-161 1517.19,-157.5 1517.19,-164.5"/>
</g>
<!-- ResultTreeDialog -->
<g id="node15" class="node">
<title>ResultTreeDialog</title>
<polygon fill="#ffffb3" stroke="black" points="1026.52,-122 911.48,-122 911.48,-86 1026.52,-86 1026.52,-122"/>
<text text-anchor="middle" x="969" y="-99.8" font-family="Times,serif" font-size="14.00">ResultTreeDialog</text>
</g>
<!-- ResultTreeDialog&#45;&gt;AppModule -->
<g id="edge15" class="edge">
<title>ResultTreeDialog&#45;&gt;AppModule</title>
<path fill="none" stroke="black" d="M969,-122.3C969,-140.27 969,-165 969,-165 969,-165 1517.29,-165 1517.29,-165"/>
<polygon fill="black" stroke="black" points="1517.29,-168.5 1527.29,-165 1517.29,-161.5 1517.29,-168.5"/>
</g>
<!-- SaveGraphDialog -->
<g id="node16" class="node">
<title>SaveGraphDialog</title>
<polygon fill="#ffffb3" stroke="black" points="893.3,-122 776.7,-122 776.7,-86 893.3,-86 893.3,-122"/>
<text text-anchor="middle" x="835" y="-99.8" font-family="Times,serif" font-size="14.00">SaveGraphDialog</text>
</g>
<!-- SaveGraphDialog&#45;&gt;AppModule -->
<g id="edge16" class="edge">
<title>SaveGraphDialog&#45;&gt;AppModule</title>
<path fill="none" stroke="black" d="M835,-122.17C835,-141.09 835,-168 835,-168 835,-168 1517.17,-168 1517.17,-168"/>
<polygon fill="black" stroke="black" points="1517.17,-171.5 1527.17,-168 1517.17,-164.5 1517.17,-171.5"/>
</g>
<!-- SymbolEditorComponent -->
<g id="node17" class="node">
<title>SymbolEditorComponent</title>
<polygon fill="#ffffb3" stroke="black" points="758.89,-122 599.11,-122 599.11,-86 758.89,-86 758.89,-122"/>
<text text-anchor="middle" x="679" y="-99.8" font-family="Times,serif" font-size="14.00">SymbolEditorComponent</text>
</g>
<!-- SymbolEditorComponent&#45;&gt;AppModule -->
<g id="edge17" class="edge">
<title>SymbolEditorComponent&#45;&gt;AppModule</title>
<path fill="none" stroke="black" d="M679,-122.31C679,-142.15 679,-171 679,-171 679,-171 1517.27,-171 1517.27,-171"/>
<polygon fill="black" stroke="black" points="1517.27,-174.5 1527.27,-171 1517.27,-167.5 1517.27,-174.5"/>
</g>
<!-- TraceComponent -->
<g id="node18" class="node">
<title>TraceComponent</title>
<polygon fill="#ffffb3" stroke="black" points="580.69,-122 467.31,-122 467.31,-86 580.69,-86 580.69,-122"/>
<text text-anchor="middle" x="524" y="-99.8" font-family="Times,serif" font-size="14.00">TraceComponent</text>
</g>
<!-- TraceComponent&#45;&gt;AppModule -->
<g id="edge18" class="edge">
<title>TraceComponent&#45;&gt;AppModule</title>
<path fill="none" stroke="black" d="M524,-122.03C524,-142.77 524,-174 524,-174 524,-174 1517.07,-174 1517.07,-174"/>
<polygon fill="black" stroke="black" points="1517.07,-177.5 1527.07,-174 1517.07,-170.5 1517.07,-177.5"/>
</g>
<!-- UpdateAvailableDialog -->
<g id="node19" class="node">
<title>UpdateAvailableDialog</title>
<polygon fill="#ffffb3" stroke="black" points="449.45,-122 300.55,-122 300.55,-86 449.45,-86 449.45,-122"/>
<text text-anchor="middle" x="375" y="-99.8" font-family="Times,serif" font-size="14.00">UpdateAvailableDialog</text>
</g>
<!-- UpdateAvailableDialog&#45;&gt;AppModule -->
<g id="edge19" class="edge">
<title>UpdateAvailableDialog&#45;&gt;AppModule</title>
<path fill="none" stroke="black" d="M375,-122.29C375,-144.21 375,-178 375,-178 375,-178 1517.21,-178 1517.21,-178"/>
<polygon fill="black" stroke="black" points="1517.21,-181.5 1527.21,-178 1517.2,-174.5 1517.21,-181.5"/>
</g>
<!-- AppComponent  -->
<g id="node23" class="node">
<title>AppComponent </title>
<polygon fill="#80b1d3" stroke="black" points="1623.44,-252 1514.56,-252 1514.56,-216 1623.44,-216 1623.44,-252"/>
<text text-anchor="middle" x="1569" y="-229.8" font-family="Times,serif" font-size="14.00">AppComponent </text>
</g>
<!-- AppModule&#45;&gt;AppComponent  -->
<g id="edge22" class="edge">
<title>AppModule&#45;&gt;AppComponent </title>
<path fill="none" stroke="black" stroke-dasharray="1,5" d="M1569,-187.11C1569,-187.11 1569,-205.99 1569,-205.99"/>
<polygon fill="black" stroke="black" points="1565.5,-205.99 1569,-215.99 1572.5,-205.99 1565.5,-205.99"/>
</g>
<!-- AppRoutingModule -->
<g id="node21" class="node">
<title>AppRoutingModule</title>
<polygon fill="#8dd3c7" stroke="black" points="277.27,-122 274.27,-126 253.27,-126 250.27,-122 148.73,-122 148.73,-86 277.27,-86 277.27,-122"/>
<text text-anchor="middle" x="213" y="-99.8" font-family="Times,serif" font-size="14.00">AppRoutingModule</text>
</g>
<!-- AppRoutingModule&#45;&gt;AppModule -->
<g id="edge20" class="edge">
<title>AppRoutingModule&#45;&gt;AppModule</title>
<path fill="none" stroke="black" d="M213,-122.25C213,-145.02 213,-181 213,-181 213,-181 1517.3,-181 1517.3,-181"/>
<polygon fill="black" stroke="black" points="1517.3,-184.5 1527.3,-181 1517.3,-177.5 1517.3,-184.5"/>
</g>
<!-- MaterialModule -->
<g id="node22" class="node">
<title>MaterialModule</title>
<polygon fill="#8dd3c7" stroke="black" points="130.47,-122 127.47,-126 106.47,-126 103.47,-122 23.53,-122 23.53,-86 130.47,-86 130.47,-122"/>
<text text-anchor="middle" x="77" y="-99.8" font-family="Times,serif" font-size="14.00">MaterialModule</text>
</g>
<!-- MaterialModule&#45;&gt;AppModule -->
<g id="edge21" class="edge">
<title>MaterialModule&#45;&gt;AppModule</title>
<path fill="none" stroke="black" d="M77,-122.15C77,-145.76 77,-184 77,-184 77,-184 1517.15,-184 1517.15,-184"/>
<polygon fill="black" stroke="black" points="1517.15,-187.5 1527.15,-184 1517.15,-180.5 1517.15,-187.5"/>
</g>
</g>
</svg>
