<?xml version="1.0" encoding="UTF-8" standalone="no"?>
<!DOCTYPE svg PUBLIC "-//W3C//DTD SVG 1.1//EN"
 "http://www.w3.org/Graphics/SVG/1.1/DTD/svg11.dtd">
<!-- Generated by graphviz version 2.47.0 (20210316.0004)
 -->
<!-- Title: dependencies Pages: 1 -->
<svg width="3823pt" height="284pt"
 viewBox="0.00 0.00 3823.00 284.00" xmlns="http://www.w3.org/2000/svg" xmlns:xlink="http://www.w3.org/1999/xlink">
<g id="graph0" class="graph" transform="scale(1 1) rotate(0) translate(4 280)">
<title>dependencies</title>
<polygon fill="white" stroke="transparent" points="-4,4 -4,-280 3819,-280 3819,4 -4,4"/>
<text text-anchor="start" x="1886.51" y="-42.4" font-family="sans-serif" font-weight="bold" font-size="14.00">Legend</text>
<polygon fill="#ffffb3" stroke="transparent" points="1673.5,-10 1673.5,-30 1693.5,-30 1693.5,-10 1673.5,-10"/>
<text text-anchor="start" x="1697.13" y="-15.4" font-family="sans-serif" font-size="14.00"> &#160;Declarations</text>
<polygon fill="#8dd3c7" stroke="transparent" points="1786.5,-10 1786.5,-30 1806.5,-30 1806.5,-10 1786.5,-10"/>
<text text-anchor="start" x="1810.23" y="-15.4" font-family="sans-serif" font-size="14.00"> &#160;Module</text>
<polygon fill="#80b1d3" stroke="transparent" points="1872.5,-10 1872.5,-30 1892.5,-30 1892.5,-10 1872.5,-10"/>
<text text-anchor="start" x="1896.28" y="-15.4" font-family="sans-serif" font-size="14.00"> &#160;Bootstrap</text>
<polygon fill="#fdb462" stroke="transparent" points="1969.5,-10 1969.5,-30 1989.5,-30 1989.5,-10 1969.5,-10"/>
<text text-anchor="start" x="1993.17" y="-15.4" font-family="sans-serif" font-size="14.00"> &#160;Providers</text>
<polygon fill="#fb8072" stroke="transparent" points="2065.5,-10 2065.5,-30 2085.5,-30 2085.5,-10 2065.5,-10"/>
<text text-anchor="start" x="2089.23" y="-15.4" font-family="sans-serif" font-size="14.00"> &#160;Exports</text>
<g id="clust1" class="cluster">
<title>cluster_AppModule</title>
<polygon fill="none" stroke="black" stroke-dasharray="1,5" points="8,-70 8,-268 3807,-268 3807,-70 8,-70"/>
</g>
<g id="clust28" class="cluster">
<title>cluster_AppModule_bootstrap</title>
<polygon fill="none" stroke="black" points="1811,-208 1811,-260 1935,-260 1935,-208 1811,-208"/>
</g>
<g id="clust26" class="cluster">
<title>cluster_AppModule_imports</title>
<polygon fill="none" stroke="black" points="3530,-78 3530,-130 3799,-130 3799,-78 3530,-78"/>
</g>
<g id="clust2" class="cluster">
<title>cluster_AppModule_declarations</title>
<polygon fill="none" stroke="black" points="16,-78 16,-130 3522,-130 3522,-78 16,-78"/>
</g>
<!-- AppComponent -->
<g id="node1" class="node">
<title>AppComponent</title>
<polygon fill="#ffffb3" stroke="black" points="3513.94,-122 3408.06,-122 3408.06,-86 3513.94,-86 3513.94,-122"/>
<text text-anchor="middle" x="3461" y="-99.8" font-family="Times,serif" font-size="14.00">AppComponent</text>
</g>
<!-- AppModule -->
<g id="node24" class="node">
<title>AppModule</title>
<polygon fill="#8dd3c7" stroke="black" points="1914.66,-187 1911.66,-191 1890.66,-191 1887.66,-187 1831.34,-187 1831.34,-151 1914.66,-151 1914.66,-187"/>
<text text-anchor="middle" x="1873" y="-164.8" font-family="Times,serif" font-size="14.00">AppModule</text>
</g>
<!-- AppComponent&#45;&gt;AppModule -->
<g id="edge1" class="edge">
<title>AppComponent&#45;&gt;AppModule</title>
<path fill="none" stroke="black" d="M3461,-122.16C3461,-144.35 3461,-179 3461,-179 3461,-179 1924.66,-179 1924.66,-179"/>
<polygon fill="black" stroke="black" points="1924.66,-175.5 1914.66,-179 1924.66,-182.5 1924.66,-175.5"/>
</g>
<!-- AssignmentCardComponent -->
<g id="node2" class="node">
<title>AssignmentCardComponent</title>
<polygon fill="#ffffb3" stroke="black" points="3390.93,-122 3215.07,-122 3215.07,-86 3390.93,-86 3390.93,-122"/>
<text text-anchor="middle" x="3303" y="-99.8" font-family="Times,serif" font-size="14.00">AssignmentCardComponent</text>
</g>
<!-- AssignmentCardComponent&#45;&gt;AppModule -->
<g id="edge2" class="edge">
<title>AssignmentCardComponent&#45;&gt;AppModule</title>
<path fill="none" stroke="black" d="M3303,-122.17C3303,-143.5 3303,-176 3303,-176 3303,-176 1925.02,-176 1925.02,-176"/>
<polygon fill="black" stroke="black" points="1925.02,-172.5 1915.02,-176 1925.02,-179.5 1925.02,-172.5"/>
</g>
<!-- AssignmentPage -->
<g id="node3" class="node">
<title>AssignmentPage</title>
<polygon fill="#ffffb3" stroke="black" points="3197.09,-122 3086.91,-122 3086.91,-86 3197.09,-86 3197.09,-122"/>
<text text-anchor="middle" x="3142" y="-99.8" font-family="Times,serif" font-size="14.00">AssignmentPage</text>
</g>
<!-- AssignmentPage&#45;&gt;AppModule -->
<g id="edge3" class="edge">
<title>AssignmentPage&#45;&gt;AppModule</title>
<path fill="none" stroke="black" d="M3142,-122.03C3142,-142.77 3142,-174 3142,-174 3142,-174 1924.86,-174 1924.86,-174"/>
<polygon fill="black" stroke="black" points="1924.86,-170.5 1914.86,-174 1924.86,-177.5 1924.86,-170.5"/>
</g>
<!-- AssignmentSolutionDialog -->
<g id="node4" class="node">
<title>AssignmentSolutionDialog</title>
<polygon fill="#ffffb3" stroke="black" points="3069.44,-122 2900.56,-122 2900.56,-86 3069.44,-86 3069.44,-122"/>
<text text-anchor="middle" x="2985" y="-99.8" font-family="Times,serif" font-size="14.00">AssignmentSolutionDialog</text>
</g>
<!-- AssignmentSolutionDialog&#45;&gt;AppModule -->
<g id="edge4" class="edge">
<title>AssignmentSolutionDialog&#45;&gt;AppModule</title>
<path fill="none" stroke="black" d="M2985,-122.31C2985,-142.15 2985,-171 2985,-171 2985,-171 1924.9,-171 1924.9,-171"/>
<polygon fill="black" stroke="black" points="1924.9,-167.5 1914.9,-171 1924.9,-174.5 1924.9,-167.5"/>
</g>
<!-- AssignmentsPage -->
<g id="node5" class="node">
<title>AssignmentsPage</title>
<polygon fill="#ffffb3" stroke="black" points="2882.54,-122 2767.46,-122 2767.46,-86 2882.54,-86 2882.54,-122"/>
<text text-anchor="middle" x="2825" y="-99.8" font-family="Times,serif" font-size="14.00">AssignmentsPage</text>
</g>
<!-- AssignmentsPage&#45;&gt;AppModule -->
<g id="edge5" class="edge">
<title>AssignmentsPage&#45;&gt;AppModule</title>
<path fill="none" stroke="black" d="M2825,-122.17C2825,-141.09 2825,-168 2825,-168 2825,-168 1924.83,-168 1924.83,-168"/>
<polygon fill="black" stroke="black" points="1924.83,-164.5 1914.83,-168 1924.83,-171.5 1924.83,-164.5"/>
</g>
<!-- DashboardPage -->
<g id="node6" class="node">
<title>DashboardPage</title>
<polygon fill="#ffffb3" stroke="black" points="2748.85,-122 2645.15,-122 2645.15,-86 2748.85,-86 2748.85,-122"/>
<text text-anchor="middle" x="2697" y="-99.8" font-family="Times,serif" font-size="14.00">DashboardPage</text>
</g>
<!-- DashboardPage&#45;&gt;AppModule -->
<g id="edge6" class="edge">
<title>DashboardPage&#45;&gt;AppModule</title>
<path fill="none" stroke="black" d="M2697,-122.3C2697,-140.27 2697,-165 2697,-165 2697,-165 1924.71,-165 1924.71,-165"/>
<polygon fill="black" stroke="black" points="1924.71,-161.5 1914.71,-165 1924.71,-168.5 1924.71,-161.5"/>
</g>
<!-- ExportGraphBottomSheet -->
<g id="node7" class="node">
<title>ExportGraphBottomSheet</title>
<polygon fill="#ffffb3" stroke="black" points="2627.2,-122 2464.8,-122 2464.8,-86 2627.2,-86 2627.2,-122"/>
<text text-anchor="middle" x="2546" y="-99.8" font-family="Times,serif" font-size="14.00">ExportGraphBottomSheet</text>
</g>
<!-- ExportGraphBottomSheet&#45;&gt;AppModule -->
<g id="edge7" class="edge">
<title>ExportGraphBottomSheet&#45;&gt;AppModule</title>
<path fill="none" stroke="black" d="M2546,-122.02C2546,-139.37 2546,-163 2546,-163 2546,-163 1924.84,-163 1924.84,-163"/>
<polygon fill="black" stroke="black" points="1924.84,-159.5 1914.84,-163 1924.84,-166.5 1924.84,-159.5"/>
</g>
<!-- FeedbackSelectionComponent -->
<g id="node8" class="node">
<title>FeedbackSelectionComponent</title>
<polygon fill="#ffffb3" stroke="black" points="2446.57,-122 2259.43,-122 2259.43,-86 2446.57,-86 2446.57,-122"/>
<text text-anchor="middle" x="2353" y="-99.8" font-family="Times,serif" font-size="14.00">FeedbackSelectionComponent</text>
</g>
<!-- FeedbackSelectionComponent&#45;&gt;AppModule -->
<g id="edge8" class="edge">
<title>FeedbackSelectionComponent&#45;&gt;AppModule</title>
<path fill="none" stroke="black" d="M2353,-122.03C2353,-138.4 2353,-160 2353,-160 2353,-160 1924.76,-160 1924.76,-160"/>
<polygon fill="black" stroke="black" points="1924.76,-156.5 1914.76,-160 1924.76,-163.5 1924.76,-156.5"/>
</g>
<!-- FormulaSyntaxDialog -->
<g id="node9" class="node">
<title>FormulaSyntaxDialog</title>
<polygon fill="#ffffb3" stroke="black" points="2241.43,-122 2100.57,-122 2100.57,-86 2241.43,-86 2241.43,-122"/>
<text text-anchor="middle" x="2171" y="-99.8" font-family="Times,serif" font-size="14.00">FormulaSyntaxDialog</text>
</g>
<!-- FormulaSyntaxDialog&#45;&gt;AppModule -->
<g id="edge9" class="edge">
<title>FormulaSyntaxDialog&#45;&gt;AppModule</title>
<path fill="none" stroke="black" d="M2171,-122.24C2171,-137.57 2171,-157 2171,-157 2171,-157 1924.75,-157 1924.75,-157"/>
<polygon fill="black" stroke="black" points="1924.75,-153.5 1914.75,-157 1924.75,-160.5 1924.75,-153.5"/>
</g>
<!-- GraphComponent -->
<g id="node10" class="node">
<title>GraphComponent</title>
<polygon fill="#ffffb3" stroke="black" points="2083.31,-122 1966.69,-122 1966.69,-86 2083.31,-86 2083.31,-122"/>
<text text-anchor="middle" x="2025" y="-99.8" font-family="Times,serif" font-size="14.00">GraphComponent</text>
</g>
<!-- GraphComponent&#45;&gt;AppModule -->
<g id="edge10" class="edge">
<title>GraphComponent&#45;&gt;AppModule</title>
<path fill="none" stroke="black" d="M2025,-122.05C2025,-136.37 2025,-154 2025,-154 2025,-154 1924.94,-154 1924.94,-154"/>
<polygon fill="black" stroke="black" points="1924.94,-150.5 1914.94,-154 1924.94,-157.5 1924.94,-150.5"/>
</g>
<!-- GraphEditorComponent -->
<g id="node11" class="node">
<title>GraphEditorComponent</title>
<polygon fill="#ffffb3" stroke="black" points="1948.81,-122 1797.19,-122 1797.19,-86 1948.81,-86 1948.81,-122"/>
<text text-anchor="middle" x="1873" y="-99.8" font-family="Times,serif" font-size="14.00">GraphEditorComponent</text>
</g>
<!-- GraphEditorComponent&#45;&gt;AppModule -->
<g id="edge11" class="edge">
<title>GraphEditorComponent&#45;&gt;AppModule</title>
<path fill="none" stroke="black" d="M1873,-122.11C1873,-122.11 1873,-140.99 1873,-140.99"/>
<polygon fill="black" stroke="black" points="1869.5,-140.99 1873,-150.99 1876.5,-140.99 1869.5,-140.99"/>
</g>
<!-- GraphImportComponent -->
<g id="node12" class="node">
<title>GraphImportComponent</title>
<polygon fill="#ffffb3" stroke="black" points="1779.42,-122 1624.58,-122 1624.58,-86 1779.42,-86 1779.42,-122"/>
<text text-anchor="middle" x="1702" y="-99.8" font-family="Times,serif" font-size="14.00">GraphImportComponent</text>
</g>
<!-- GraphImportComponent&#45;&gt;AppModule -->
<g id="edge12" class="edge">
<title>GraphImportComponent&#45;&gt;AppModule</title>
<path fill="none" stroke="black" d="M1702,-122.05C1702,-136.37 1702,-154 1702,-154 1702,-154 1821.17,-154 1821.17,-154"/>
<polygon fill="black" stroke="black" points="1821.17,-157.5 1831.17,-154 1821.17,-150.5 1821.17,-157.5"/>
</g>
<!-- GraphListComponent -->
<g id="node13" class="node">
<title>GraphListComponent</title>
<polygon fill="#ffffb3" stroke="black" points="1607.09,-122 1468.91,-122 1468.91,-86 1607.09,-86 1607.09,-122"/>
<text text-anchor="middle" x="1538" y="-99.8" font-family="Times,serif" font-size="14.00">GraphListComponent</text>
</g>
<!-- GraphListComponent&#45;&gt;AppModule -->
<g id="edge13" class="edge">
<title>GraphListComponent&#45;&gt;AppModule</title>
<path fill="none" stroke="black" d="M1538,-122.24C1538,-137.57 1538,-157 1538,-157 1538,-157 1821.25,-157 1821.25,-157"/>
<polygon fill="black" stroke="black" points="1821.25,-160.5 1831.25,-157 1821.25,-153.5 1821.25,-160.5"/>
</g>
<!-- HomePage -->
<g id="node14" class="node">
<title>HomePage</title>
<polygon fill="#ffffb3" stroke="black" points="1450.92,-122 1373.08,-122 1373.08,-86 1450.92,-86 1450.92,-122"/>
<text text-anchor="middle" x="1412" y="-99.8" font-family="Times,serif" font-size="14.00">HomePage</text>
</g>
<!-- HomePage&#45;&gt;AppModule -->
<g id="edge14" class="edge">
<title>HomePage&#45;&gt;AppModule</title>
<path fill="none" stroke="black" d="M1412,-122.03C1412,-138.4 1412,-160 1412,-160 1412,-160 1821.28,-160 1821.28,-160"/>
<polygon fill="black" stroke="black" points="1821.28,-163.5 1831.28,-160 1821.28,-156.5 1821.28,-163.5"/>
</g>
<!-- HttpProgressDialog -->
<g id="node15" class="node">
<title>HttpProgressDialog</title>
<polygon fill="#ffffb3" stroke="black" points="1355.7,-122 1228.3,-122 1228.3,-86 1355.7,-86 1355.7,-122"/>
<text text-anchor="middle" x="1292" y="-99.8" font-family="Times,serif" font-size="14.00">HttpProgressDialog</text>
</g>
<!-- HttpProgressDialog&#45;&gt;AppModule -->
<g id="edge15" class="edge">
<title>HttpProgressDialog&#45;&gt;AppModule</title>
<path fill="none" stroke="black" d="M1292,-122.02C1292,-139.37 1292,-163 1292,-163 1292,-163 1821.22,-163 1821.22,-163"/>
<polygon fill="black" stroke="black" points="1821.22,-166.5 1831.22,-163 1821.22,-159.5 1821.22,-166.5"/>
</g>
<!-- LinkFormComponent -->
<g id="node16" class="node">
<title>LinkFormComponent</title>
<polygon fill="#ffffb3" stroke="black" points="1210.11,-122 1071.89,-122 1071.89,-86 1210.11,-86 1210.11,-122"/>
<text text-anchor="middle" x="1141" y="-99.8" font-family="Times,serif" font-size="14.00">LinkFormComponent</text>
</g>
<!-- LinkFormComponent&#45;&gt;AppModule -->
<g id="edge16" class="edge">
<title>LinkFormComponent&#45;&gt;AppModule</title>
<path fill="none" stroke="black" d="M1141,-122.3C1141,-140.27 1141,-165 1141,-165 1141,-165 1821.28,-165 1821.28,-165"/>
<polygon fill="black" stroke="black" points="1821.28,-168.5 1831.28,-165 1821.28,-161.5 1821.28,-168.5"/>
</g>
<!-- ModelCheckerPage -->
<g id="node17" class="node">
<title>ModelCheckerPage</title>
<polygon fill="#ffffb3" stroke="black" points="1054.4,-122 927.6,-122 927.6,-86 1054.4,-86 1054.4,-122"/>
<text text-anchor="middle" x="991" y="-99.8" font-family="Times,serif" font-size="14.00">ModelCheckerPage</text>
</g>
<!-- ModelCheckerPage&#45;&gt;AppModule -->
<g id="edge17" class="edge">
<title>ModelCheckerPage&#45;&gt;AppModule</title>
<path fill="none" stroke="black" d="M991,-122.17C991,-141.09 991,-168 991,-168 991,-168 1821.05,-168 1821.05,-168"/>
<polygon fill="black" stroke="black" points="1821.05,-171.5 1831.05,-168 1821.05,-164.5 1821.05,-171.5"/>
</g>
<!-- NodeFormComponent -->
<g id="node18" class="node">
<title>NodeFormComponent</title>
<polygon fill="#ffffb3" stroke="black" points="909.99,-122 768.01,-122 768.01,-86 909.99,-86 909.99,-122"/>
<text text-anchor="middle" x="839" y="-99.8" font-family="Times,serif" font-size="14.00">NodeFormComponent</text>
</g>
<!-- NodeFormComponent&#45;&gt;AppModule -->
<g id="edge18" class="edge">
<title>NodeFormComponent&#45;&gt;AppModule</title>
<path fill="none" stroke="black" d="M839,-122.31C839,-142.15 839,-171 839,-171 839,-171 1821.19,-171 1821.19,-171"/>
<polygon fill="black" stroke="black" points="1821.19,-174.5 1831.19,-171 1821.19,-167.5 1821.19,-174.5"/>
</g>
<!-- ResultTreeDialog -->
<g id="node19" class="node">
<title>ResultTreeDialog</title>
<polygon fill="#ffffb3" stroke="black" points="749.52,-122 634.48,-122 634.48,-86 749.52,-86 749.52,-122"/>
<text text-anchor="middle" x="692" y="-99.8" font-family="Times,serif" font-size="14.00">ResultTreeDialog</text>
</g>
<!-- ResultTreeDialog&#45;&gt;AppModule -->
<g id="edge19" class="edge">
<title>ResultTreeDialog&#45;&gt;AppModule</title>
<path fill="none" stroke="black" d="M692,-122.03C692,-142.77 692,-174 692,-174 692,-174 1821.31,-174 1821.31,-174"/>
<polygon fill="black" stroke="black" points="1821.31,-177.5 1831.31,-174 1821.31,-170.5 1821.31,-177.5"/>
</g>
<!-- SaveGraphDialog -->
<g id="node20" class="node">
<title>SaveGraphDialog</title>
<polygon fill="#ffffb3" stroke="black" points="616.3,-122 499.7,-122 499.7,-86 616.3,-86 616.3,-122"/>
<text text-anchor="middle" x="558" y="-99.8" font-family="Times,serif" font-size="14.00">SaveGraphDialog</text>
</g>
<!-- SaveGraphDialog&#45;&gt;AppModule -->
<g id="edge20" class="edge">
<title>SaveGraphDialog&#45;&gt;AppModule</title>
<path fill="none" stroke="black" d="M558,-122.17C558,-143.5 558,-176 558,-176 558,-176 1821.11,-176 1821.11,-176"/>
<polygon fill="black" stroke="black" points="1821.11,-179.5 1831.11,-176 1821.11,-172.5 1821.11,-179.5"/>
</g>
<!-- SymbolEditorComponent -->
<g id="node21" class="node">
<title>SymbolEditorComponent</title>
<polygon fill="#ffffb3" stroke="black" points="481.89,-122 322.11,-122 322.11,-86 481.89,-86 481.89,-122"/>
<text text-anchor="middle" x="402" y="-99.8" font-family="Times,serif" font-size="14.00">SymbolEditorComponent</text>
</g>
<!-- SymbolEditorComponent&#45;&gt;AppModule -->
<g id="edge21" class="edge">
<title>SymbolEditorComponent&#45;&gt;AppModule</title>
<path fill="none" stroke="black" d="M402,-122.16C402,-144.35 402,-179 402,-179 402,-179 1820.95,-179 1820.95,-179"/>
<polygon fill="black" stroke="black" points="1820.95,-182.5 1830.95,-179 1820.95,-175.5 1820.95,-182.5"/>
</g>
<!-- TraceComponent -->
<g id="node22" class="node">
<title>TraceComponent</title>
<polygon fill="#ffffb3" stroke="black" points="303.69,-122 190.31,-122 190.31,-86 303.69,-86 303.69,-122"/>
<text text-anchor="middle" x="247" y="-99.8" font-family="Times,serif" font-size="14.00">TraceComponent</text>
</g>
<!-- TraceComponent&#45;&gt;AppModule -->
<g id="edge22" class="edge">
<title>TraceComponent&#45;&gt;AppModule</title>
<path fill="none" stroke="black" d="M247,-122.09C247,-145.13 247,-182 247,-182 247,-182 1821.17,-182 1821.17,-182"/>
<polygon fill="black" stroke="black" points="1821.17,-185.5 1831.17,-182 1821.17,-178.5 1821.17,-185.5"/>
</g>
<!-- UpdateAvailableDialog -->
<g id="node23" class="node">
<title>UpdateAvailableDialog</title>
<polygon fill="#ffffb3" stroke="black" points="172.45,-122 23.55,-122 23.55,-86 172.45,-86 172.45,-122"/>
<text text-anchor="middle" x="98" y="-99.8" font-family="Times,serif" font-size="14.00">UpdateAvailableDialog</text>
</g>
<!-- UpdateAvailableDialog&#45;&gt;AppModule -->
<g id="edge23" class="edge">
<title>UpdateAvailableDialog&#45;&gt;AppModule</title>
<path fill="none" stroke="black" d="M98,-122.38C98,-146.28 98,-185 98,-185 98,-185 1821.31,-185 1821.31,-185"/>
<polygon fill="black" stroke="black" points="1821.31,-188.5 1831.31,-185 1821.31,-181.5 1821.31,-188.5"/>
</g>
<!-- AppComponent  -->
<g id="node27" class="node">
<title>AppComponent </title>
<polygon fill="#80b1d3" stroke="black" points="1927.44,-252 1818.56,-252 1818.56,-216 1927.44,-216 1927.44,-252"/>
<text text-anchor="middle" x="1873" y="-229.8" font-family="Times,serif" font-size="14.00">AppComponent </text>
</g>
<!-- AppModule&#45;&gt;AppComponent  -->
<g id="edge26" class="edge">
<title>AppModule&#45;&gt;AppComponent </title>
<path fill="none" stroke="black" stroke-dasharray="1,5" d="M1873,-187.11C1873,-187.11 1873,-205.99 1873,-205.99"/>
<polygon fill="black" stroke="black" points="1869.5,-205.99 1873,-215.99 1876.5,-205.99 1869.5,-205.99"/>
</g>
<!-- AppRoutingModule -->
<g id="node25" class="node">
<title>AppRoutingModule</title>
<polygon fill="#8dd3c7" stroke="black" points="3791.27,-122 3788.27,-126 3767.27,-126 3764.27,-122 3662.73,-122 3662.73,-86 3791.27,-86 3791.27,-122"/>
<text text-anchor="middle" x="3727" y="-99.8" font-family="Times,serif" font-size="14.00">AppRoutingModule</text>
</g>
<!-- AppRoutingModule&#45;&gt;AppModule -->
<g id="edge24" class="edge">
<title>AppRoutingModule&#45;&gt;AppModule</title>
<path fill="none" stroke="black" d="M3727,-122.38C3727,-146.28 3727,-185 3727,-185 3727,-185 1924.76,-185 1924.76,-185"/>
<polygon fill="black" stroke="black" points="1924.76,-181.5 1914.76,-185 1924.76,-188.5 1924.76,-181.5"/>
</g>
<!-- MaterialModule -->
<g id="node26" class="node">
<title>MaterialModule</title>
<polygon fill="#8dd3c7" stroke="black" points="3644.47,-122 3641.47,-126 3620.47,-126 3617.47,-122 3537.53,-122 3537.53,-86 3644.47,-86 3644.47,-122"/>
<text text-anchor="middle" x="3591" y="-99.8" font-family="Times,serif" font-size="14.00">MaterialModule</text>
</g>
<!-- MaterialModule&#45;&gt;AppModule -->
<g id="edge25" class="edge">
<title>MaterialModule&#45;&gt;AppModule</title>
<path fill="none" stroke="black" d="M3591,-122.09C3591,-145.13 3591,-182 3591,-182 3591,-182 1925.04,-182 1925.04,-182"/>
<polygon fill="black" stroke="black" points="1925.04,-178.5 1915.04,-182 1925.04,-185.5 1925.04,-178.5"/>
</g>
</g>
</svg>
