<?xml version="1.0" encoding="UTF-8" standalone="no"?>
<!DOCTYPE svg PUBLIC "-//W3C//DTD SVG 1.1//EN"
 "http://www.w3.org/Graphics/SVG/1.1/DTD/svg11.dtd">
<!-- Generated by graphviz version 5.0.0 (20220707.1540)
 -->
<!-- Title: dependencies Pages: 1 -->
<svg width="3823pt" height="247pt"
 viewBox="0.00 0.00 3823.00 246.80" xmlns="http://www.w3.org/2000/svg" xmlns:xlink="http://www.w3.org/1999/xlink">
<g id="graph0" class="graph" transform="scale(1 1) rotate(0) translate(4 242.8)">
<title>dependencies</title>
<polygon fill="white" stroke="transparent" points="-4,4 -4,-242.8 3819,-242.8 3819,4 -4,4"/>
<text text-anchor="middle" x="1907.5" y="-8.2" font-family="sans-serif" font-size="14.00">dependencies</text>
<g id="clust1" class="cluster">
<title>cluster_AppModule</title>
<polygon fill="none" stroke="black" stroke-dasharray="1,5" points="8,-32.8 8,-230.8 3807,-230.8 3807,-32.8 8,-32.8"/>
</g>
<g id="clust26" class="cluster">
<title>cluster_AppModule_imports</title>
<polygon fill="none" stroke="black" points="3530,-40.8 3530,-92.8 3799,-92.8 3799,-40.8 3530,-40.8"/>
</g>
<g id="clust28" class="cluster">
<title>cluster_AppModule_bootstrap</title>
<polygon fill="none" stroke="black" points="1811,-170.8 1811,-222.8 1935,-222.8 1935,-170.8 1811,-170.8"/>
</g>
<g id="clust2" class="cluster">
<title>cluster_AppModule_declarations</title>
<polygon fill="none" stroke="black" points="16,-40.8 16,-92.8 3522,-92.8 3522,-40.8 16,-40.8"/>
</g>
<!-- AppComponent -->
<g id="node1" class="node">
<title>AppComponent</title>
<polygon fill="#ffffb3" stroke="black" points="3513.94,-84.8 3408.06,-84.8 3408.06,-48.8 3513.94,-48.8 3513.94,-84.8"/>
<text text-anchor="middle" x="3461" y="-62.6" font-family="Times,serif" font-size="14.00">AppComponent</text>
</g>
<!-- AppModule -->
<g id="node24" class="node">
<title>AppModule</title>
<polygon fill="#8dd3c7" stroke="black" points="1914.66,-149.8 1911.66,-153.8 1890.66,-153.8 1887.66,-149.8 1831.34,-149.8 1831.34,-113.8 1914.66,-113.8 1914.66,-149.8"/>
<text text-anchor="middle" x="1873" y="-127.6" font-family="Times,serif" font-size="14.00">AppModule</text>
</g>
<!-- AppComponent&#45;&gt;AppModule -->
<g id="edge1" class="edge">
<title>AppComponent&#45;&gt;AppModule</title>
<path fill="none" stroke="black" d="M3461,-84.96C3461,-107.15 3461,-141.8 3461,-141.8 3461,-141.8 1925.07,-141.8 1925.07,-141.8"/>
<polygon fill="black" stroke="black" points="1925.07,-138.3 1915.07,-141.8 1925.07,-145.3 1925.07,-138.3"/>
</g>
<!-- AssignmentCardComponent -->
<g id="node2" class="node">
<title>AssignmentCardComponent</title>
<polygon fill="#ffffb3" stroke="black" points="3390.94,-84.8 3215.06,-84.8 3215.06,-48.8 3390.94,-48.8 3390.94,-84.8"/>
<text text-anchor="middle" x="3303" y="-62.6" font-family="Times,serif" font-size="14.00">AssignmentCardComponent</text>
</g>
<!-- AssignmentCardComponent&#45;&gt;AppModule -->
<g id="edge2" class="edge">
<title>AssignmentCardComponent&#45;&gt;AppModule</title>
<path fill="none" stroke="black" d="M3303,-84.97C3303,-106.3 3303,-138.8 3303,-138.8 3303,-138.8 1925.02,-138.8 1925.02,-138.8"/>
<polygon fill="black" stroke="black" points="1925.02,-135.3 1915.02,-138.8 1925.02,-142.3 1925.02,-135.3"/>
</g>
<!-- AssignmentPage -->
<g id="node3" class="node">
<title>AssignmentPage</title>
<polygon fill="#ffffb3" stroke="black" points="3197.1,-84.8 3086.9,-84.8 3086.9,-48.8 3197.1,-48.8 3197.1,-84.8"/>
<text text-anchor="middle" x="3142" y="-62.6" font-family="Times,serif" font-size="14.00">AssignmentPage</text>
</g>
<!-- AssignmentPage&#45;&gt;AppModule -->
<g id="edge3" class="edge">
<title>AssignmentPage&#45;&gt;AppModule</title>
<path fill="none" stroke="black" d="M3142,-84.83C3142,-105.57 3142,-136.8 3142,-136.8 3142,-136.8 1924.86,-136.8 1924.86,-136.8"/>
<polygon fill="black" stroke="black" points="1924.86,-133.3 1914.86,-136.8 1924.86,-140.3 1924.86,-133.3"/>
</g>
<!-- AssignmentSolutionDialog -->
<g id="node4" class="node">
<title>AssignmentSolutionDialog</title>
<polygon fill="#ffffb3" stroke="black" points="3069.45,-84.8 2900.55,-84.8 2900.55,-48.8 3069.45,-48.8 3069.45,-84.8"/>
<text text-anchor="middle" x="2985" y="-62.6" font-family="Times,serif" font-size="14.00">AssignmentSolutionDialog</text>
</g>
<!-- AssignmentSolutionDialog&#45;&gt;AppModule -->
<g id="edge4" class="edge">
<title>AssignmentSolutionDialog&#45;&gt;AppModule</title>
<path fill="none" stroke="black" d="M2985,-85.11C2985,-104.95 2985,-133.8 2985,-133.8 2985,-133.8 1924.9,-133.8 1924.9,-133.8"/>
<polygon fill="black" stroke="black" points="1924.9,-130.3 1914.9,-133.8 1924.9,-137.3 1924.9,-130.3"/>
</g>
<!-- AssignmentsPage -->
<g id="node5" class="node">
<title>AssignmentsPage</title>
<polygon fill="#ffffb3" stroke="black" points="2882.55,-84.8 2767.45,-84.8 2767.45,-48.8 2882.55,-48.8 2882.55,-84.8"/>
<text text-anchor="middle" x="2825" y="-62.6" font-family="Times,serif" font-size="14.00">AssignmentsPage</text>
</g>
<!-- AssignmentsPage&#45;&gt;AppModule -->
<g id="edge5" class="edge">
<title>AssignmentsPage&#45;&gt;AppModule</title>
<path fill="none" stroke="black" d="M2825,-84.97C2825,-103.89 2825,-130.8 2825,-130.8 2825,-130.8 1924.83,-130.8 1924.83,-130.8"/>
<polygon fill="black" stroke="black" points="1924.83,-127.3 1914.83,-130.8 1924.83,-134.3 1924.83,-127.3"/>
</g>
<!-- DashboardPage -->
<g id="node6" class="node">
<title>DashboardPage</title>
<polygon fill="#ffffb3" stroke="black" points="2748.86,-84.8 2645.14,-84.8 2645.14,-48.8 2748.86,-48.8 2748.86,-84.8"/>
<text text-anchor="middle" x="2697" y="-62.6" font-family="Times,serif" font-size="14.00">DashboardPage</text>
</g>
<!-- DashboardPage&#45;&gt;AppModule -->
<g id="edge6" class="edge">
<title>DashboardPage&#45;&gt;AppModule</title>
<path fill="none" stroke="black" d="M2697,-85.1C2697,-103.07 2697,-127.8 2697,-127.8 2697,-127.8 1924.71,-127.8 1924.71,-127.8"/>
<polygon fill="black" stroke="black" points="1924.71,-124.3 1914.71,-127.8 1924.71,-131.3 1924.71,-124.3"/>
</g>
<!-- ExportGraphBottomSheet -->
<g id="node7" class="node">
<title>ExportGraphBottomSheet</title>
<polygon fill="#ffffb3" stroke="black" points="2627.2,-84.8 2464.8,-84.8 2464.8,-48.8 2627.2,-48.8 2627.2,-84.8"/>
<text text-anchor="middle" x="2546" y="-62.6" font-family="Times,serif" font-size="14.00">ExportGraphBottomSheet</text>
</g>
<!-- ExportGraphBottomSheet&#45;&gt;AppModule -->
<g id="edge7" class="edge">
<title>ExportGraphBottomSheet&#45;&gt;AppModule</title>
<path fill="none" stroke="black" d="M2546,-84.82C2546,-102.17 2546,-125.8 2546,-125.8 2546,-125.8 1924.84,-125.8 1924.84,-125.8"/>
<polygon fill="black" stroke="black" points="1924.84,-122.3 1914.84,-125.8 1924.84,-129.3 1924.84,-122.3"/>
</g>
<!-- FeedbackSelectionComponent -->
<g id="node8" class="node">
<title>FeedbackSelectionComponent</title>
<polygon fill="#ffffb3" stroke="black" points="2446.57,-84.8 2259.43,-84.8 2259.43,-48.8 2446.57,-48.8 2446.57,-84.8"/>
<text text-anchor="middle" x="2353" y="-62.6" font-family="Times,serif" font-size="14.00">FeedbackSelectionComponent</text>
</g>
<!-- FeedbackSelectionComponent&#45;&gt;AppModule -->
<g id="edge8" class="edge">
<title>FeedbackSelectionComponent&#45;&gt;AppModule</title>
<path fill="none" stroke="black" d="M2353,-84.83C2353,-101.2 2353,-122.8 2353,-122.8 2353,-122.8 1924.76,-122.8 1924.76,-122.8"/>
<polygon fill="black" stroke="black" points="1924.76,-119.3 1914.76,-122.8 1924.76,-126.3 1924.76,-119.3"/>
</g>
<!-- FormulaSyntaxDialog -->
<g id="node9" class="node">
<title>FormulaSyntaxDialog</title>
<polygon fill="#ffffb3" stroke="black" points="2241.44,-84.8 2100.56,-84.8 2100.56,-48.8 2241.44,-48.8 2241.44,-84.8"/>
<text text-anchor="middle" x="2171" y="-62.6" font-family="Times,serif" font-size="14.00">FormulaSyntaxDialog</text>
</g>
<!-- FormulaSyntaxDialog&#45;&gt;AppModule -->
<g id="edge9" class="edge">
<title>FormulaSyntaxDialog&#45;&gt;AppModule</title>
<path fill="none" stroke="black" d="M2171,-85.04C2171,-100.37 2171,-119.8 2171,-119.8 2171,-119.8 1924.75,-119.8 1924.75,-119.8"/>
<polygon fill="black" stroke="black" points="1924.75,-116.3 1914.75,-119.8 1924.75,-123.3 1924.75,-116.3"/>
</g>
<!-- GraphComponent -->
<g id="node10" class="node">
<title>GraphComponent</title>
<polygon fill="#ffffb3" stroke="black" points="2083.32,-84.8 1966.68,-84.8 1966.68,-48.8 2083.32,-48.8 2083.32,-84.8"/>
<text text-anchor="middle" x="2025" y="-62.6" font-family="Times,serif" font-size="14.00">GraphComponent</text>
</g>
<!-- GraphComponent&#45;&gt;AppModule -->
<g id="edge10" class="edge">
<title>GraphComponent&#45;&gt;AppModule</title>
<path fill="none" stroke="black" d="M2025,-84.85C2025,-99.17 2025,-116.8 2025,-116.8 2025,-116.8 1924.94,-116.8 1924.94,-116.8"/>
<polygon fill="black" stroke="black" points="1924.94,-113.3 1914.94,-116.8 1924.94,-120.3 1924.94,-113.3"/>
</g>
<!-- GraphEditorComponent -->
<g id="node11" class="node">
<title>GraphEditorComponent</title>
<polygon fill="#ffffb3" stroke="black" points="1948.81,-84.8 1797.19,-84.8 1797.19,-48.8 1948.81,-48.8 1948.81,-84.8"/>
<text text-anchor="middle" x="1873" y="-62.6" font-family="Times,serif" font-size="14.00">GraphEditorComponent</text>
</g>
<!-- GraphEditorComponent&#45;&gt;AppModule -->
<g id="edge11" class="edge">
<title>GraphEditorComponent&#45;&gt;AppModule</title>
<path fill="none" stroke="black" d="M1873,-84.91C1873,-84.91 1873,-103.79 1873,-103.79"/>
<polygon fill="black" stroke="black" points="1869.5,-103.79 1873,-113.79 1876.5,-103.79 1869.5,-103.79"/>
</g>
<!-- GraphImportComponent -->
<g id="node12" class="node">
<title>GraphImportComponent</title>
<polygon fill="#ffffb3" stroke="black" points="1779.42,-84.8 1624.58,-84.8 1624.58,-48.8 1779.42,-48.8 1779.42,-84.8"/>
<text text-anchor="middle" x="1702" y="-62.6" font-family="Times,serif" font-size="14.00">GraphImportComponent</text>
</g>
<!-- GraphImportComponent&#45;&gt;AppModule -->
<g id="edge12" class="edge">
<title>GraphImportComponent&#45;&gt;AppModule</title>
<path fill="none" stroke="black" d="M1702,-84.85C1702,-99.17 1702,-116.8 1702,-116.8 1702,-116.8 1821.17,-116.8 1821.17,-116.8"/>
<polygon fill="black" stroke="black" points="1821.17,-120.3 1831.17,-116.8 1821.17,-113.3 1821.17,-120.3"/>
</g>
<!-- GraphListComponent -->
<g id="node13" class="node">
<title>GraphListComponent</title>
<polygon fill="#ffffb3" stroke="black" points="1607.1,-84.8 1468.9,-84.8 1468.9,-48.8 1607.1,-48.8 1607.1,-84.8"/>
<text text-anchor="middle" x="1538" y="-62.6" font-family="Times,serif" font-size="14.00">GraphListComponent</text>
</g>
<!-- GraphListComponent&#45;&gt;AppModule -->
<g id="edge13" class="edge">
<title>GraphListComponent&#45;&gt;AppModule</title>
<path fill="none" stroke="black" d="M1538,-85.04C1538,-100.37 1538,-119.8 1538,-119.8 1538,-119.8 1821.25,-119.8 1821.25,-119.8"/>
<polygon fill="black" stroke="black" points="1821.25,-123.3 1831.25,-119.8 1821.25,-116.3 1821.25,-123.3"/>
</g>
<!-- HomePage -->
<g id="node14" class="node">
<title>HomePage</title>
<polygon fill="#ffffb3" stroke="black" points="1450.93,-84.8 1373.07,-84.8 1373.07,-48.8 1450.93,-48.8 1450.93,-84.8"/>
<text text-anchor="middle" x="1412" y="-62.6" font-family="Times,serif" font-size="14.00">HomePage</text>
</g>
<!-- HomePage&#45;&gt;AppModule -->
<g id="edge14" class="edge">
<title>HomePage&#45;&gt;AppModule</title>
<path fill="none" stroke="black" d="M1412,-84.83C1412,-101.2 1412,-122.8 1412,-122.8 1412,-122.8 1821.28,-122.8 1821.28,-122.8"/>
<polygon fill="black" stroke="black" points="1821.28,-126.3 1831.28,-122.8 1821.28,-119.3 1821.28,-126.3"/>
</g>
<!-- HttpProgressDialog -->
<g id="node15" class="node">
<title>HttpProgressDialog</title>
<polygon fill="#ffffb3" stroke="black" points="1355.71,-84.8 1228.29,-84.8 1228.29,-48.8 1355.71,-48.8 1355.71,-84.8"/>
<text text-anchor="middle" x="1292" y="-62.6" font-family="Times,serif" font-size="14.00">HttpProgressDialog</text>
</g>
<!-- HttpProgressDialog&#45;&gt;AppModule -->
<g id="edge15" class="edge">
<title>HttpProgressDialog&#45;&gt;AppModule</title>
<path fill="none" stroke="black" d="M1292,-84.82C1292,-102.17 1292,-125.8 1292,-125.8 1292,-125.8 1821.22,-125.8 1821.22,-125.8"/>
<polygon fill="black" stroke="black" points="1821.22,-129.3 1831.22,-125.8 1821.22,-122.3 1821.22,-129.3"/>
</g>
<!-- LinkFormComponent -->
<g id="node16" class="node">
<title>LinkFormComponent</title>
<polygon fill="#ffffb3" stroke="black" points="1210.11,-84.8 1071.89,-84.8 1071.89,-48.8 1210.11,-48.8 1210.11,-84.8"/>
<text text-anchor="middle" x="1141" y="-62.6" font-family="Times,serif" font-size="14.00">LinkFormComponent</text>
</g>
<!-- LinkFormComponent&#45;&gt;AppModule -->
<g id="edge16" class="edge">
<title>LinkFormComponent&#45;&gt;AppModule</title>
<path fill="none" stroke="black" d="M1141,-85.1C1141,-103.07 1141,-127.8 1141,-127.8 1141,-127.8 1821.28,-127.8 1821.28,-127.8"/>
<polygon fill="black" stroke="black" points="1821.28,-131.3 1831.28,-127.8 1821.28,-124.3 1821.28,-131.3"/>
</g>
<!-- ModelCheckerPage -->
<g id="node17" class="node">
<title>ModelCheckerPage</title>
<polygon fill="#ffffb3" stroke="black" points="1054.41,-84.8 927.59,-84.8 927.59,-48.8 1054.41,-48.8 1054.41,-84.8"/>
<text text-anchor="middle" x="991" y="-62.6" font-family="Times,serif" font-size="14.00">ModelCheckerPage</text>
</g>
<!-- ModelCheckerPage&#45;&gt;AppModule -->
<g id="edge17" class="edge">
<title>ModelCheckerPage&#45;&gt;AppModule</title>
<path fill="none" stroke="black" d="M991,-84.97C991,-103.89 991,-130.8 991,-130.8 991,-130.8 1821.05,-130.8 1821.05,-130.8"/>
<polygon fill="black" stroke="black" points="1821.05,-134.3 1831.05,-130.8 1821.05,-127.3 1821.05,-134.3"/>
</g>
<!-- NodeFormComponent -->
<g id="node18" class="node">
<title>NodeFormComponent</title>
<polygon fill="#ffffb3" stroke="black" points="909.99,-84.8 768.01,-84.8 768.01,-48.8 909.99,-48.8 909.99,-84.8"/>
<text text-anchor="middle" x="839" y="-62.6" font-family="Times,serif" font-size="14.00">NodeFormComponent</text>
</g>
<!-- NodeFormComponent&#45;&gt;AppModule -->
<g id="edge18" class="edge">
<title>NodeFormComponent&#45;&gt;AppModule</title>
<path fill="none" stroke="black" d="M839,-85.11C839,-104.95 839,-133.8 839,-133.8 839,-133.8 1821.19,-133.8 1821.19,-133.8"/>
<polygon fill="black" stroke="black" points="1821.19,-137.3 1831.19,-133.8 1821.19,-130.3 1821.19,-137.3"/>
</g>
<!-- ResultTreeDialog -->
<g id="node19" class="node">
<title>ResultTreeDialog</title>
<polygon fill="#ffffb3" stroke="black" points="749.53,-84.8 634.47,-84.8 634.47,-48.8 749.53,-48.8 749.53,-84.8"/>
<text text-anchor="middle" x="692" y="-62.6" font-family="Times,serif" font-size="14.00">ResultTreeDialog</text>
</g>
<!-- ResultTreeDialog&#45;&gt;AppModule -->
<g id="edge19" class="edge">
<title>ResultTreeDialog&#45;&gt;AppModule</title>
<path fill="none" stroke="black" d="M692,-84.83C692,-105.57 692,-136.8 692,-136.8 692,-136.8 1821.31,-136.8 1821.31,-136.8"/>
<polygon fill="black" stroke="black" points="1821.31,-140.3 1831.31,-136.8 1821.31,-133.3 1821.31,-140.3"/>
</g>
<!-- SaveGraphDialog -->
<g id="node20" class="node">
<title>SaveGraphDialog</title>
<polygon fill="#ffffb3" stroke="black" points="616.3,-84.8 499.7,-84.8 499.7,-48.8 616.3,-48.8 616.3,-84.8"/>
<text text-anchor="middle" x="558" y="-62.6" font-family="Times,serif" font-size="14.00">SaveGraphDialog</text>
</g>
<!-- SaveGraphDialog&#45;&gt;AppModule -->
<g id="edge20" class="edge">
<title>SaveGraphDialog&#45;&gt;AppModule</title>
<path fill="none" stroke="black" d="M558,-84.97C558,-106.3 558,-138.8 558,-138.8 558,-138.8 1821.11,-138.8 1821.11,-138.8"/>
<polygon fill="black" stroke="black" points="1821.11,-142.3 1831.11,-138.8 1821.11,-135.3 1821.11,-142.3"/>
</g>
<!-- SymbolEditorComponent -->
<g id="node21" class="node">
<title>SymbolEditorComponent</title>
<polygon fill="#ffffb3" stroke="black" points="481.89,-84.8 322.11,-84.8 322.11,-48.8 481.89,-48.8 481.89,-84.8"/>
<text text-anchor="middle" x="402" y="-62.6" font-family="Times,serif" font-size="14.00">SymbolEditorComponent</text>
</g>
<!-- SymbolEditorComponent&#45;&gt;AppModule -->
<g id="edge21" class="edge">
<title>SymbolEditorComponent&#45;&gt;AppModule</title>
<path fill="none" stroke="black" d="M402,-84.96C402,-107.15 402,-141.8 402,-141.8 402,-141.8 1820.95,-141.8 1820.95,-141.8"/>
<polygon fill="black" stroke="black" points="1820.95,-145.3 1830.95,-141.8 1820.95,-138.3 1820.95,-145.3"/>
</g>
<!-- TraceComponent -->
<g id="node22" class="node">
<title>TraceComponent</title>
<polygon fill="#ffffb3" stroke="black" points="303.69,-84.8 190.31,-84.8 190.31,-48.8 303.69,-48.8 303.69,-84.8"/>
<text text-anchor="middle" x="247" y="-62.6" font-family="Times,serif" font-size="14.00">TraceComponent</text>
</g>
<!-- TraceComponent&#45;&gt;AppModule -->
<g id="edge22" class="edge">
<title>TraceComponent&#45;&gt;AppModule</title>
<path fill="none" stroke="black" d="M247,-84.89C247,-107.93 247,-144.8 247,-144.8 247,-144.8 1821.17,-144.8 1821.17,-144.8"/>
<polygon fill="black" stroke="black" points="1821.17,-148.3 1831.17,-144.8 1821.17,-141.3 1821.17,-148.3"/>
</g>
<!-- UpdateAvailableDialog -->
<g id="node23" class="node">
<title>UpdateAvailableDialog</title>
<polygon fill="#ffffb3" stroke="black" points="172.45,-84.8 23.55,-84.8 23.55,-48.8 172.45,-48.8 172.45,-84.8"/>
<text text-anchor="middle" x="98" y="-62.6" font-family="Times,serif" font-size="14.00">UpdateAvailableDialog</text>
</g>
<!-- UpdateAvailableDialog&#45;&gt;AppModule -->
<g id="edge23" class="edge">
<title>UpdateAvailableDialog&#45;&gt;AppModule</title>
<path fill="none" stroke="black" d="M98,-85.18C98,-109.08 98,-147.8 98,-147.8 98,-147.8 1821.31,-147.8 1821.31,-147.8"/>
<polygon fill="black" stroke="black" points="1821.31,-151.3 1831.31,-147.8 1821.31,-144.3 1821.31,-151.3"/>
</g>
<!-- AppComponent  -->
<g id="node27" class="node">
<title>AppComponent </title>
<polygon fill="#80b1d3" stroke="black" points="1927.44,-214.8 1818.56,-214.8 1818.56,-178.8 1927.44,-178.8 1927.44,-214.8"/>
<text text-anchor="middle" x="1873" y="-192.6" font-family="Times,serif" font-size="14.00">AppComponent </text>
</g>
<!-- AppModule&#45;&gt;AppComponent  -->
<g id="edge26" class="edge">
<title>AppModule&#45;&gt;AppComponent </title>
<path fill="none" stroke="black" stroke-dasharray="1,5" d="M1873,-149.91C1873,-149.91 1873,-168.79 1873,-168.79"/>
<polygon fill="black" stroke="black" points="1869.5,-168.79 1873,-178.79 1876.5,-168.79 1869.5,-168.79"/>
</g>
<!-- AppRoutingModule -->
<g id="node25" class="node">
<title>AppRoutingModule</title>
<polygon fill="#8dd3c7" stroke="black" points="3791.28,-84.8 3788.28,-88.8 3767.28,-88.8 3764.28,-84.8 3662.72,-84.8 3662.72,-48.8 3791.28,-48.8 3791.28,-84.8"/>
<text text-anchor="middle" x="3727" y="-62.6" font-family="Times,serif" font-size="14.00">AppRoutingModule</text>
</g>
<!-- AppRoutingModule&#45;&gt;AppModule -->
<g id="edge24" class="edge">
<title>AppRoutingModule&#45;&gt;AppModule</title>
<path fill="none" stroke="black" d="M3727,-85.18C3727,-109.08 3727,-147.8 3727,-147.8 3727,-147.8 1924.76,-147.8 1924.76,-147.8"/>
<polygon fill="black" stroke="black" points="1924.76,-144.3 1914.76,-147.8 1924.76,-151.3 1924.76,-144.3"/>
</g>
<!-- MaterialModule -->
<g id="node26" class="node">
<title>MaterialModule</title>
<polygon fill="#8dd3c7" stroke="black" points="3644.47,-84.8 3641.47,-88.8 3620.47,-88.8 3617.47,-84.8 3537.53,-84.8 3537.53,-48.8 3644.47,-48.8 3644.47,-84.8"/>
<text text-anchor="middle" x="3591" y="-62.6" font-family="Times,serif" font-size="14.00">MaterialModule</text>
</g>
<!-- MaterialModule&#45;&gt;AppModule -->
<g id="edge25" class="edge">
<title>MaterialModule&#45;&gt;AppModule</title>
<path fill="none" stroke="black" d="M3591,-84.89C3591,-107.93 3591,-144.8 3591,-144.8 3591,-144.8 1925.04,-144.8 1925.04,-144.8"/>
<polygon fill="black" stroke="black" points="1925.04,-141.3 1915.04,-144.8 1925.04,-148.3 1925.04,-141.3"/>
</g>
</g>
</svg>
