<?xml version="1.0" encoding="UTF-8" standalone="no"?>
<!DOCTYPE svg PUBLIC "-//W3C//DTD SVG 1.1//EN"
 "http://www.w3.org/Graphics/SVG/1.1/DTD/svg11.dtd">
<!-- Generated by graphviz version 2.44.1 (20200629.0846)
 -->
<!-- Title: dependencies Pages: 1 -->
<svg width="3182pt" height="284pt"
 viewBox="0.00 0.00 3182.00 284.00" xmlns="http://www.w3.org/2000/svg" xmlns:xlink="http://www.w3.org/1999/xlink">
<g id="graph0" class="graph" transform="scale(1 1) rotate(0) translate(4 280)">
<title>dependencies</title>
<polygon fill="white" stroke="transparent" points="-4,4 -4,-280 3178,-280 3178,4 -4,4"/>
<text text-anchor="start" x="1566.01" y="-42.4" font-family="sans-serif" font-weight="bold" font-size="14.00">Legend</text>
<polygon fill="#ffffb3" stroke="transparent" points="1353,-10 1353,-30 1373,-30 1373,-10 1353,-10"/>
<text text-anchor="start" x="1376.63" y="-15.4" font-family="sans-serif" font-size="14.00"> &#160;Declarations</text>
<polygon fill="#8dd3c7" stroke="transparent" points="1466,-10 1466,-30 1486,-30 1486,-10 1466,-10"/>
<text text-anchor="start" x="1489.73" y="-15.4" font-family="sans-serif" font-size="14.00"> &#160;Module</text>
<polygon fill="#80b1d3" stroke="transparent" points="1552,-10 1552,-30 1572,-30 1572,-10 1552,-10"/>
<text text-anchor="start" x="1575.78" y="-15.4" font-family="sans-serif" font-size="14.00"> &#160;Bootstrap</text>
<polygon fill="#fdb462" stroke="transparent" points="1649,-10 1649,-30 1669,-30 1669,-10 1649,-10"/>
<text text-anchor="start" x="1672.67" y="-15.4" font-family="sans-serif" font-size="14.00"> &#160;Providers</text>
<polygon fill="#fb8072" stroke="transparent" points="1745,-10 1745,-30 1765,-30 1765,-10 1745,-10"/>
<text text-anchor="start" x="1768.73" y="-15.4" font-family="sans-serif" font-size="14.00"> &#160;Exports</text>
<g id="clust1" class="cluster">
<title>cluster_AppModule</title>
<polygon fill="none" stroke="black" stroke-dasharray="1,5" points="8,-70 8,-268 3166,-268 3166,-70 8,-70"/>
</g>
<g id="clust22" class="cluster">
<title>cluster_AppModule_imports</title>
<polygon fill="none" stroke="black" points="2889,-78 2889,-130 3158,-130 3158,-78 2889,-78"/>
</g>
<g id="clust2" class="cluster">
<title>cluster_AppModule_declarations</title>
<polygon fill="none" stroke="black" points="16,-78 16,-130 2881,-130 2881,-78 16,-78"/>
</g>
<g id="clust24" class="cluster">
<title>cluster_AppModule_bootstrap</title>
<polygon fill="none" stroke="black" points="1476,-208 1476,-260 1600,-260 1600,-208 1476,-208"/>
</g>
<!-- AppComponent -->
<g id="node1" class="node">
<title>AppComponent</title>
<polygon fill="#ffffb3" stroke="black" points="2872.94,-122 2767.06,-122 2767.06,-86 2872.94,-86 2872.94,-122"/>
<text text-anchor="middle" x="2820" y="-99.8" font-family="Times,serif" font-size="14.00">AppComponent</text>
</g>
<!-- AppModule -->
<g id="node20" class="node">
<title>AppModule</title>
<polygon fill="#8dd3c7" stroke="black" points="1579.66,-187 1576.66,-191 1555.66,-191 1552.66,-187 1496.34,-187 1496.34,-151 1579.66,-151 1579.66,-187"/>
<text text-anchor="middle" x="1538" y="-164.8" font-family="Times,serif" font-size="14.00">AppModule</text>
</g>
<!-- AppComponent&#45;&gt;AppModule -->
<g id="edge1" class="edge">
<title>AppComponent&#45;&gt;AppModule</title>
<path fill="none" stroke="black" d="M2820,-122.29C2820,-144.21 2820,-178 2820,-178 2820,-178 1589.93,-178 1589.93,-178"/>
<polygon fill="black" stroke="black" points="1589.93,-174.5 1579.93,-178 1589.93,-181.5 1589.93,-174.5"/>
</g>
<!-- DashboardPage -->
<g id="node2" class="node">
<title>DashboardPage</title>
<polygon fill="#ffffb3" stroke="black" points="2748.85,-122 2645.15,-122 2645.15,-86 2748.85,-86 2748.85,-122"/>
<text text-anchor="middle" x="2697" y="-99.8" font-family="Times,serif" font-size="14.00">DashboardPage</text>
</g>
<!-- DashboardPage&#45;&gt;AppModule -->
<g id="edge2" class="edge">
<title>DashboardPage&#45;&gt;AppModule</title>
<path fill="none" stroke="black" d="M2697,-122.03C2697,-142.77 2697,-174 2697,-174 2697,-174 1589.93,-174 1589.93,-174"/>
<polygon fill="black" stroke="black" points="1589.93,-170.5 1579.93,-174 1589.93,-177.5 1589.93,-170.5"/>
</g>
<!-- ExportGraphBottomSheet -->
<g id="node3" class="node">
<title>ExportGraphBottomSheet</title>
<polygon fill="#ffffb3" stroke="black" points="2627.2,-122 2464.8,-122 2464.8,-86 2627.2,-86 2627.2,-122"/>
<text text-anchor="middle" x="2546" y="-99.8" font-family="Times,serif" font-size="14.00">ExportGraphBottomSheet</text>
</g>
<!-- ExportGraphBottomSheet&#45;&gt;AppModule -->
<g id="edge3" class="edge">
<title>ExportGraphBottomSheet&#45;&gt;AppModule</title>
<path fill="none" stroke="black" d="M2546,-122.31C2546,-142.15 2546,-171 2546,-171 2546,-171 1589.71,-171 1589.71,-171"/>
<polygon fill="black" stroke="black" points="1589.71,-167.5 1579.71,-171 1589.71,-174.5 1589.71,-167.5"/>
</g>
<!-- FeedbackSelectionComponent -->
<g id="node4" class="node">
<title>FeedbackSelectionComponent</title>
<polygon fill="#ffffb3" stroke="black" points="2446.57,-122 2259.43,-122 2259.43,-86 2446.57,-86 2446.57,-122"/>
<text text-anchor="middle" x="2353" y="-99.8" font-family="Times,serif" font-size="14.00">FeedbackSelectionComponent</text>
</g>
<!-- FeedbackSelectionComponent&#45;&gt;AppModule -->
<g id="edge4" class="edge">
<title>FeedbackSelectionComponent&#45;&gt;AppModule</title>
<path fill="none" stroke="black" d="M2353,-122.17C2353,-141.09 2353,-168 2353,-168 2353,-168 1589.82,-168 1589.82,-168"/>
<polygon fill="black" stroke="black" points="1589.82,-164.5 1579.82,-168 1589.82,-171.5 1589.82,-164.5"/>
</g>
<!-- FormulaSyntaxDialog -->
<g id="node5" class="node">
<title>FormulaSyntaxDialog</title>
<polygon fill="#ffffb3" stroke="black" points="2241.43,-122 2100.57,-122 2100.57,-86 2241.43,-86 2241.43,-122"/>
<text text-anchor="middle" x="2171" y="-99.8" font-family="Times,serif" font-size="14.00">FormulaSyntaxDialog</text>
</g>
<!-- FormulaSyntaxDialog&#45;&gt;AppModule -->
<g id="edge5" class="edge">
<title>FormulaSyntaxDialog&#45;&gt;AppModule</title>
<path fill="none" stroke="black" d="M2171,-122.3C2171,-140.27 2171,-165 2171,-165 2171,-165 1590.02,-165 1590.02,-165"/>
<polygon fill="black" stroke="black" points="1590.02,-161.5 1580.02,-165 1590.02,-168.5 1590.02,-161.5"/>
</g>
<!-- GraphComponent -->
<g id="node6" class="node">
<title>GraphComponent</title>
<polygon fill="#ffffb3" stroke="black" points="2083.31,-122 1966.69,-122 1966.69,-86 2083.31,-86 2083.31,-122"/>
<text text-anchor="middle" x="2025" y="-99.8" font-family="Times,serif" font-size="14.00">GraphComponent</text>
</g>
<!-- GraphComponent&#45;&gt;AppModule -->
<g id="edge6" class="edge">
<title>GraphComponent&#45;&gt;AppModule</title>
<path fill="none" stroke="black" d="M2025,-122.04C2025,-138.73 2025,-161 2025,-161 2025,-161 1589.94,-161 1589.94,-161"/>
<polygon fill="black" stroke="black" points="1589.94,-157.5 1579.94,-161 1589.94,-164.5 1589.94,-157.5"/>
</g>
<!-- GraphEditorComponent -->
<g id="node7" class="node">
<title>GraphEditorComponent</title>
<polygon fill="#ffffb3" stroke="black" points="1948.81,-122 1797.19,-122 1797.19,-86 1948.81,-86 1948.81,-122"/>
<text text-anchor="middle" x="1873" y="-99.8" font-family="Times,serif" font-size="14.00">GraphEditorComponent</text>
</g>
<!-- GraphEditorComponent&#45;&gt;AppModule -->
<g id="edge7" class="edge">
<title>GraphEditorComponent&#45;&gt;AppModule</title>
<path fill="none" stroke="black" d="M1873,-122.28C1873,-137.95 1873,-158 1873,-158 1873,-158 1589.75,-158 1589.75,-158"/>
<polygon fill="black" stroke="black" points="1589.75,-154.5 1579.75,-158 1589.75,-161.5 1589.75,-154.5"/>
</g>
<!-- GraphImportComponent -->
<g id="node8" class="node">
<title>GraphImportComponent</title>
<polygon fill="#ffffb3" stroke="black" points="1779.42,-122 1624.58,-122 1624.58,-86 1779.42,-86 1779.42,-122"/>
<text text-anchor="middle" x="1702" y="-99.8" font-family="Times,serif" font-size="14.00">GraphImportComponent</text>
</g>
<!-- GraphImportComponent&#45;&gt;AppModule -->
<g id="edge8" class="edge">
<title>GraphImportComponent&#45;&gt;AppModule</title>
<path fill="none" stroke="black" d="M1702,-122.12C1702,-136.78 1702,-155 1702,-155 1702,-155 1589.81,-155 1589.81,-155"/>
<polygon fill="black" stroke="black" points="1589.81,-151.5 1579.81,-155 1589.81,-158.5 1589.81,-151.5"/>
</g>
<!-- GraphListComponent -->
<g id="node9" class="node">
<title>GraphListComponent</title>
<polygon fill="#ffffb3" stroke="black" points="1607.09,-122 1468.91,-122 1468.91,-86 1607.09,-86 1607.09,-122"/>
<text text-anchor="middle" x="1538" y="-99.8" font-family="Times,serif" font-size="14.00">GraphListComponent</text>
</g>
<!-- GraphListComponent&#45;&gt;AppModule -->
<g id="edge9" class="edge">
<title>GraphListComponent&#45;&gt;AppModule</title>
<path fill="none" stroke="black" d="M1538,-122.11C1538,-122.11 1538,-140.99 1538,-140.99"/>
<polygon fill="black" stroke="black" points="1534.5,-140.99 1538,-150.99 1541.5,-140.99 1534.5,-140.99"/>
</g>
<!-- HomePage -->
<g id="node10" class="node">
<title>HomePage</title>
<polygon fill="#ffffb3" stroke="black" points="1450.92,-122 1373.08,-122 1373.08,-86 1450.92,-86 1450.92,-122"/>
<text text-anchor="middle" x="1412" y="-99.8" font-family="Times,serif" font-size="14.00">HomePage</text>
</g>
<!-- HomePage&#45;&gt;AppModule -->
<g id="edge10" class="edge">
<title>HomePage&#45;&gt;AppModule</title>
<path fill="none" stroke="black" d="M1412,-122.12C1412,-136.78 1412,-155 1412,-155 1412,-155 1486.04,-155 1486.04,-155"/>
<polygon fill="black" stroke="black" points="1486.04,-158.5 1496.04,-155 1486.04,-151.5 1486.04,-158.5"/>
</g>
<!-- HttpProgressDialog -->
<g id="node11" class="node">
<title>HttpProgressDialog</title>
<polygon fill="#ffffb3" stroke="black" points="1355.7,-122 1228.3,-122 1228.3,-86 1355.7,-86 1355.7,-122"/>
<text text-anchor="middle" x="1292" y="-99.8" font-family="Times,serif" font-size="14.00">HttpProgressDialog</text>
</g>
<!-- HttpProgressDialog&#45;&gt;AppModule -->
<g id="edge11" class="edge">
<title>HttpProgressDialog&#45;&gt;AppModule</title>
<path fill="none" stroke="black" d="M1292,-122.28C1292,-137.95 1292,-158 1292,-158 1292,-158 1486.27,-158 1486.27,-158"/>
<polygon fill="black" stroke="black" points="1486.27,-161.5 1496.27,-158 1486.27,-154.5 1486.27,-161.5"/>
</g>
<!-- LinkFormComponent -->
<g id="node12" class="node">
<title>LinkFormComponent</title>
<polygon fill="#ffffb3" stroke="black" points="1210.11,-122 1071.89,-122 1071.89,-86 1210.11,-86 1210.11,-122"/>
<text text-anchor="middle" x="1141" y="-99.8" font-family="Times,serif" font-size="14.00">LinkFormComponent</text>
</g>
<!-- LinkFormComponent&#45;&gt;AppModule -->
<g id="edge12" class="edge">
<title>LinkFormComponent&#45;&gt;AppModule</title>
<path fill="none" stroke="black" d="M1141,-122.04C1141,-138.73 1141,-161 1141,-161 1141,-161 1486.26,-161 1486.26,-161"/>
<polygon fill="black" stroke="black" points="1486.26,-164.5 1496.26,-161 1486.26,-157.5 1486.26,-164.5"/>
</g>
<!-- ModelCheckerPage -->
<g id="node13" class="node">
<title>ModelCheckerPage</title>
<polygon fill="#ffffb3" stroke="black" points="1054.4,-122 927.6,-122 927.6,-86 1054.4,-86 1054.4,-122"/>
<text text-anchor="middle" x="991" y="-99.8" font-family="Times,serif" font-size="14.00">ModelCheckerPage</text>
</g>
<!-- ModelCheckerPage&#45;&gt;AppModule -->
<g id="edge13" class="edge">
<title>ModelCheckerPage&#45;&gt;AppModule</title>
<path fill="none" stroke="black" d="M991,-122.3C991,-140.27 991,-165 991,-165 991,-165 1485.99,-165 1485.99,-165"/>
<polygon fill="black" stroke="black" points="1485.99,-168.5 1495.99,-165 1485.99,-161.5 1485.99,-168.5"/>
</g>
<!-- NodeFormComponent -->
<g id="node14" class="node">
<title>NodeFormComponent</title>
<polygon fill="#ffffb3" stroke="black" points="909.99,-122 768.01,-122 768.01,-86 909.99,-86 909.99,-122"/>
<text text-anchor="middle" x="839" y="-99.8" font-family="Times,serif" font-size="14.00">NodeFormComponent</text>
</g>
<!-- NodeFormComponent&#45;&gt;AppModule -->
<g id="edge14" class="edge">
<title>NodeFormComponent&#45;&gt;AppModule</title>
<path fill="none" stroke="black" d="M839,-122.17C839,-141.09 839,-168 839,-168 839,-168 1486.11,-168 1486.11,-168"/>
<polygon fill="black" stroke="black" points="1486.11,-171.5 1496.11,-168 1486.11,-164.5 1486.11,-171.5"/>
</g>
<!-- ResultTreeDialog -->
<g id="node15" class="node">
<title>ResultTreeDialog</title>
<polygon fill="#ffffb3" stroke="black" points="749.52,-122 634.48,-122 634.48,-86 749.52,-86 749.52,-122"/>
<text text-anchor="middle" x="692" y="-99.8" font-family="Times,serif" font-size="14.00">ResultTreeDialog</text>
</g>
<!-- ResultTreeDialog&#45;&gt;AppModule -->
<g id="edge15" class="edge">
<title>ResultTreeDialog&#45;&gt;AppModule</title>
<path fill="none" stroke="black" d="M692,-122.31C692,-142.15 692,-171 692,-171 692,-171 1486.34,-171 1486.34,-171"/>
<polygon fill="black" stroke="black" points="1486.34,-174.5 1496.34,-171 1486.34,-167.5 1486.34,-174.5"/>
</g>
<!-- SaveGraphDialog -->
<g id="node16" class="node">
<title>SaveGraphDialog</title>
<polygon fill="#ffffb3" stroke="black" points="616.3,-122 499.7,-122 499.7,-86 616.3,-86 616.3,-122"/>
<text text-anchor="middle" x="558" y="-99.8" font-family="Times,serif" font-size="14.00">SaveGraphDialog</text>
</g>
<!-- SaveGraphDialog&#45;&gt;AppModule -->
<g id="edge16" class="edge">
<title>SaveGraphDialog&#45;&gt;AppModule</title>
<path fill="none" stroke="black" d="M558,-122.03C558,-142.77 558,-174 558,-174 558,-174 1486.2,-174 1486.2,-174"/>
<polygon fill="black" stroke="black" points="1486.2,-177.5 1496.2,-174 1486.2,-170.5 1486.2,-177.5"/>
</g>
<!-- SymbolEditorComponent -->
<g id="node17" class="node">
<title>SymbolEditorComponent</title>
<polygon fill="#ffffb3" stroke="black" points="481.89,-122 322.11,-122 322.11,-86 481.89,-86 481.89,-122"/>
<text text-anchor="middle" x="402" y="-99.8" font-family="Times,serif" font-size="14.00">SymbolEditorComponent</text>
</g>
<!-- SymbolEditorComponent&#45;&gt;AppModule -->
<g id="edge17" class="edge">
<title>SymbolEditorComponent&#45;&gt;AppModule</title>
<path fill="none" stroke="black" d="M402,-122.29C402,-144.21 402,-178 402,-178 402,-178 1486.22,-178 1486.22,-178"/>
<polygon fill="black" stroke="black" points="1486.22,-181.5 1496.22,-178 1486.22,-174.5 1486.22,-181.5"/>
</g>
<!-- TraceComponent -->
<g id="node18" class="node">
<title>TraceComponent</title>
<polygon fill="#ffffb3" stroke="black" points="303.69,-122 190.31,-122 190.31,-86 303.69,-86 303.69,-122"/>
<text text-anchor="middle" x="247" y="-99.8" font-family="Times,serif" font-size="14.00">TraceComponent</text>
</g>
<!-- TraceComponent&#45;&gt;AppModule -->
<g id="edge18" class="edge">
<title>TraceComponent&#45;&gt;AppModule</title>
<path fill="none" stroke="black" d="M247,-122.25C247,-145.02 247,-181 247,-181 247,-181 1486.14,-181 1486.14,-181"/>
<polygon fill="black" stroke="black" points="1486.14,-184.5 1496.14,-181 1486.14,-177.5 1486.14,-184.5"/>
</g>
<!-- UpdateAvailableDialog -->
<g id="node19" class="node">
<title>UpdateAvailableDialog</title>
<polygon fill="#ffffb3" stroke="black" points="172.45,-122 23.55,-122 23.55,-86 172.45,-86 172.45,-122"/>
<text text-anchor="middle" x="98" y="-99.8" font-family="Times,serif" font-size="14.00">UpdateAvailableDialog</text>
</g>
<!-- UpdateAvailableDialog&#45;&gt;AppModule -->
<g id="edge19" class="edge">
<title>UpdateAvailableDialog&#45;&gt;AppModule</title>
<path fill="none" stroke="black" d="M98,-122.15C98,-145.76 98,-184 98,-184 98,-184 1486.07,-184 1486.07,-184"/>
<polygon fill="black" stroke="black" points="1486.07,-187.5 1496.07,-184 1486.07,-180.5 1486.07,-187.5"/>
</g>
<!-- AppComponent  -->
<g id="node23" class="node">
<title>AppComponent </title>
<polygon fill="#80b1d3" stroke="black" points="1592.44,-252 1483.56,-252 1483.56,-216 1592.44,-216 1592.44,-252"/>
<text text-anchor="middle" x="1538" y="-229.8" font-family="Times,serif" font-size="14.00">AppComponent </text>
</g>
<!-- AppModule&#45;&gt;AppComponent  -->
<g id="edge22" class="edge">
<title>AppModule&#45;&gt;AppComponent </title>
<path fill="none" stroke="black" stroke-dasharray="1,5" d="M1538,-187.11C1538,-187.11 1538,-205.99 1538,-205.99"/>
<polygon fill="black" stroke="black" points="1534.5,-205.99 1538,-215.99 1541.5,-205.99 1534.5,-205.99"/>
</g>
<!-- AppRoutingModule -->
<g id="node21" class="node">
<title>AppRoutingModule</title>
<polygon fill="#8dd3c7" stroke="black" points="3150.27,-122 3147.27,-126 3126.27,-126 3123.27,-122 3021.73,-122 3021.73,-86 3150.27,-86 3150.27,-122"/>
<text text-anchor="middle" x="3086" y="-99.8" font-family="Times,serif" font-size="14.00">AppRoutingModule</text>
</g>
<!-- AppRoutingModule&#45;&gt;AppModule -->
<g id="edge20" class="edge">
<title>AppRoutingModule&#45;&gt;AppModule</title>
<path fill="none" stroke="black" d="M3086,-122.15C3086,-145.76 3086,-184 3086,-184 3086,-184 1589.81,-184 1589.81,-184"/>
<polygon fill="black" stroke="black" points="1589.81,-180.5 1579.81,-184 1589.81,-187.5 1589.81,-180.5"/>
</g>
<!-- MaterialModule -->
<g id="node22" class="node">
<title>MaterialModule</title>
<polygon fill="#8dd3c7" stroke="black" points="3003.47,-122 3000.47,-126 2979.47,-126 2976.47,-122 2896.53,-122 2896.53,-86 3003.47,-86 3003.47,-122"/>
<text text-anchor="middle" x="2950" y="-99.8" font-family="Times,serif" font-size="14.00">MaterialModule</text>
</g>
<!-- MaterialModule&#45;&gt;AppModule -->
<g id="edge21" class="edge">
<title>MaterialModule&#45;&gt;AppModule</title>
<path fill="none" stroke="black" d="M2950,-122.25C2950,-145.02 2950,-181 2950,-181 2950,-181 1589.88,-181 1589.88,-181"/>
<polygon fill="black" stroke="black" points="1589.88,-177.5 1579.88,-181 1589.88,-184.5 1589.88,-177.5"/>
</g>
</g>
</svg>
