<?xml version="1.0" encoding="UTF-8" standalone="no"?>
<!DOCTYPE svg PUBLIC "-//W3C//DTD SVG 1.1//EN"
 "http://www.w3.org/Graphics/SVG/1.1/DTD/svg11.dtd">
<!-- Generated by graphviz version 2.44.1 (20200629.0846)
 -->
<!-- Title: dependencies Pages: 1 -->
<svg width="3016pt" height="284pt"
 viewBox="0.00 0.00 3016.00 284.00" xmlns="http://www.w3.org/2000/svg" xmlns:xlink="http://www.w3.org/1999/xlink">
<g id="graph0" class="graph" transform="scale(1 1) rotate(0) translate(4 280)">
<title>dependencies</title>
<polygon fill="white" stroke="transparent" points="-4,4 -4,-280 3012,-280 3012,4 -4,4"/>
<text text-anchor="start" x="1483.01" y="-42.4" font-family="sans-serif" font-weight="bold" font-size="14.00">Legend</text>
<polygon fill="#ffffb3" stroke="transparent" points="1270,-10 1270,-30 1290,-30 1290,-10 1270,-10"/>
<text text-anchor="start" x="1293.63" y="-15.4" font-family="sans-serif" font-size="14.00"> &#160;Declarations</text>
<polygon fill="#8dd3c7" stroke="transparent" points="1383,-10 1383,-30 1403,-30 1403,-10 1383,-10"/>
<text text-anchor="start" x="1406.73" y="-15.4" font-family="sans-serif" font-size="14.00"> &#160;Module</text>
<polygon fill="#80b1d3" stroke="transparent" points="1469,-10 1469,-30 1489,-30 1489,-10 1469,-10"/>
<text text-anchor="start" x="1492.78" y="-15.4" font-family="sans-serif" font-size="14.00"> &#160;Bootstrap</text>
<polygon fill="#fdb462" stroke="transparent" points="1566,-10 1566,-30 1586,-30 1586,-10 1566,-10"/>
<text text-anchor="start" x="1589.67" y="-15.4" font-family="sans-serif" font-size="14.00"> &#160;Providers</text>
<polygon fill="#fb8072" stroke="transparent" points="1662,-10 1662,-30 1682,-30 1682,-10 1662,-10"/>
<text text-anchor="start" x="1685.73" y="-15.4" font-family="sans-serif" font-size="14.00"> &#160;Exports</text>
<g id="clust1" class="cluster">
<title>cluster_AppModule</title>
<polygon fill="none" stroke="black" stroke-dasharray="1,5" points="8,-70 8,-268 3000,-268 3000,-70 8,-70"/>
</g>
<g id="clust21" class="cluster">
<title>cluster_AppModule_imports</title>
<polygon fill="none" stroke="black" points="2723,-78 2723,-130 2992,-130 2992,-78 2723,-78"/>
</g>
<g id="clust2" class="cluster">
<title>cluster_AppModule_declarations</title>
<polygon fill="none" stroke="black" points="16,-78 16,-130 2715,-130 2715,-78 16,-78"/>
</g>
<g id="clust23" class="cluster">
<title>cluster_AppModule_bootstrap</title>
<polygon fill="none" stroke="black" points="1392,-208 1392,-260 1516,-260 1516,-208 1392,-208"/>
</g>
<!-- AppComponent -->
<g id="node1" class="node">
<title>AppComponent</title>
<polygon fill="#ffffb3" stroke="black" points="2706.94,-122 2601.06,-122 2601.06,-86 2706.94,-86 2706.94,-122"/>
<text text-anchor="middle" x="2654" y="-99.8" font-family="Times,serif" font-size="14.00">AppComponent</text>
</g>
<!-- AppModule -->
<g id="node19" class="node">
<title>AppModule</title>
<polygon fill="#8dd3c7" stroke="black" points="1495.66,-187 1492.66,-191 1471.66,-191 1468.66,-187 1412.34,-187 1412.34,-151 1495.66,-151 1495.66,-187"/>
<text text-anchor="middle" x="1454" y="-164.8" font-family="Times,serif" font-size="14.00">AppModule</text>
</g>
<!-- AppComponent&#45;&gt;AppModule -->
<g id="edge1" class="edge">
<title>AppComponent&#45;&gt;AppModule</title>
<path fill="none" stroke="black" d="M2654,-122.04C2654,-143.66 2654,-177 2654,-177 2654,-177 1506.01,-177 1506.01,-177"/>
<polygon fill="black" stroke="black" points="1506.01,-173.5 1496.01,-177 1506,-180.5 1506.01,-173.5"/>
</g>
<!-- DashboardPage -->
<g id="node2" class="node">
<title>DashboardPage</title>
<polygon fill="#ffffb3" stroke="black" points="2582.85,-122 2479.15,-122 2479.15,-86 2582.85,-86 2582.85,-122"/>
<text text-anchor="middle" x="2531" y="-99.8" font-family="Times,serif" font-size="14.00">DashboardPage</text>
</g>
<!-- DashboardPage&#45;&gt;AppModule -->
<g id="edge2" class="edge">
<title>DashboardPage&#45;&gt;AppModule</title>
<path fill="none" stroke="black" d="M2531,-122.13C2531,-142.57 2531,-173 2531,-173 2531,-173 1505.89,-173 1505.89,-173"/>
<polygon fill="black" stroke="black" points="1505.89,-169.5 1495.89,-173 1505.89,-176.5 1505.89,-169.5"/>
</g>
<!-- ExportGraphBottomSheet -->
<g id="node3" class="node">
<title>ExportGraphBottomSheet</title>
<polygon fill="#ffffb3" stroke="black" points="2461.2,-122 2298.8,-122 2298.8,-86 2461.2,-86 2461.2,-122"/>
<text text-anchor="middle" x="2380" y="-99.8" font-family="Times,serif" font-size="14.00">ExportGraphBottomSheet</text>
</g>
<!-- ExportGraphBottomSheet&#45;&gt;AppModule -->
<g id="edge3" class="edge">
<title>ExportGraphBottomSheet&#45;&gt;AppModule</title>
<path fill="none" stroke="black" d="M2380,-122.11C2380,-141.34 2380,-169 2380,-169 2380,-169 1505.89,-169 1505.89,-169"/>
<polygon fill="black" stroke="black" points="1505.89,-165.5 1495.89,-169 1505.89,-172.5 1505.89,-165.5"/>
</g>
<!-- FeedbackSelectionComponent -->
<g id="node4" class="node">
<title>FeedbackSelectionComponent</title>
<polygon fill="#ffffb3" stroke="black" points="2280.57,-122 2093.43,-122 2093.43,-86 2280.57,-86 2280.57,-122"/>
<text text-anchor="middle" x="2187" y="-99.8" font-family="Times,serif" font-size="14.00">FeedbackSelectionComponent</text>
</g>
<!-- FeedbackSelectionComponent&#45;&gt;AppModule -->
<g id="edge4" class="edge">
<title>FeedbackSelectionComponent&#45;&gt;AppModule</title>
<path fill="none" stroke="black" d="M2187,-122.27C2187,-140.56 2187,-166 2187,-166 2187,-166 1505.78,-166 1505.78,-166"/>
<polygon fill="black" stroke="black" points="1505.78,-162.5 1495.78,-166 1505.78,-169.5 1505.78,-162.5"/>
</g>
<!-- FormulaSyntaxDialog -->
<g id="node5" class="node">
<title>FormulaSyntaxDialog</title>
<polygon fill="#ffffb3" stroke="black" points="2075.43,-122 1934.57,-122 1934.57,-86 2075.43,-86 2075.43,-122"/>
<text text-anchor="middle" x="2005" y="-99.8" font-family="Times,serif" font-size="14.00">FormulaSyntaxDialog</text>
</g>
<!-- FormulaSyntaxDialog&#45;&gt;AppModule -->
<g id="edge5" class="edge">
<title>FormulaSyntaxDialog&#45;&gt;AppModule</title>
<path fill="none" stroke="black" d="M2005,-122.03C2005,-139.06 2005,-162 2005,-162 2005,-162 1505.87,-162 1505.87,-162"/>
<polygon fill="black" stroke="black" points="1505.87,-158.5 1495.87,-162 1505.87,-165.5 1505.87,-158.5"/>
</g>
<!-- GraphComponent -->
<g id="node6" class="node">
<title>GraphComponent</title>
<polygon fill="#ffffb3" stroke="black" points="1917.31,-122 1800.69,-122 1800.69,-86 1917.31,-86 1917.31,-122"/>
<text text-anchor="middle" x="1859" y="-99.8" font-family="Times,serif" font-size="14.00">GraphComponent</text>
</g>
<!-- GraphComponent&#45;&gt;AppModule -->
<g id="edge6" class="edge">
<title>GraphComponent&#45;&gt;AppModule</title>
<path fill="none" stroke="black" d="M1859,-122.01C1859,-138.05 1859,-159 1859,-159 1859,-159 1505.82,-159 1505.82,-159"/>
<polygon fill="black" stroke="black" points="1505.82,-155.5 1495.82,-159 1505.82,-162.5 1505.82,-155.5"/>
</g>
<!-- GraphEditorComponent -->
<g id="node7" class="node">
<title>GraphEditorComponent</title>
<polygon fill="#ffffb3" stroke="black" points="1782.81,-122 1631.19,-122 1631.19,-86 1782.81,-86 1782.81,-122"/>
<text text-anchor="middle" x="1707" y="-99.8" font-family="Times,serif" font-size="14.00">GraphEditorComponent</text>
</g>
<!-- GraphEditorComponent&#45;&gt;AppModule -->
<g id="edge7" class="edge">
<title>GraphEditorComponent&#45;&gt;AppModule</title>
<path fill="none" stroke="black" d="M1707,-122.12C1707,-136.78 1707,-155 1707,-155 1707,-155 1505.78,-155 1505.78,-155"/>
<polygon fill="black" stroke="black" points="1505.78,-151.5 1495.78,-155 1505.78,-158.5 1505.78,-151.5"/>
</g>
<!-- GraphImportComponent -->
<g id="node8" class="node">
<title>GraphImportComponent</title>
<polygon fill="#ffffb3" stroke="black" points="1613.42,-122 1458.58,-122 1458.58,-86 1613.42,-86 1613.42,-122"/>
<text text-anchor="middle" x="1536" y="-99.8" font-family="Times,serif" font-size="14.00">GraphImportComponent</text>
</g>
<!-- GraphImportComponent&#45;&gt;AppModule -->
<g id="edge8" class="edge">
<title>GraphImportComponent&#45;&gt;AppModule</title>
<path fill="none" stroke="black" d="M1477.31,-122.11C1477.31,-122.11 1477.31,-140.99 1477.31,-140.99"/>
<polygon fill="black" stroke="black" points="1473.81,-140.99 1477.31,-150.99 1480.81,-140.99 1473.81,-140.99"/>
</g>
<!-- GraphListComponent -->
<g id="node9" class="node">
<title>GraphListComponent</title>
<polygon fill="#ffffb3" stroke="black" points="1441.09,-122 1302.91,-122 1302.91,-86 1441.09,-86 1441.09,-122"/>
<text text-anchor="middle" x="1372" y="-99.8" font-family="Times,serif" font-size="14.00">GraphListComponent</text>
</g>
<!-- GraphListComponent&#45;&gt;AppModule -->
<g id="edge9" class="edge">
<title>GraphListComponent&#45;&gt;AppModule</title>
<path fill="none" stroke="black" d="M1426.61,-122.11C1426.61,-122.11 1426.61,-140.99 1426.61,-140.99"/>
<polygon fill="black" stroke="black" points="1423.11,-140.99 1426.61,-150.99 1430.11,-140.99 1423.11,-140.99"/>
</g>
<!-- HomePage -->
<g id="node10" class="node">
<title>HomePage</title>
<polygon fill="#ffffb3" stroke="black" points="1284.92,-122 1207.08,-122 1207.08,-86 1284.92,-86 1284.92,-122"/>
<text text-anchor="middle" x="1246" y="-99.8" font-family="Times,serif" font-size="14.00">HomePage</text>
</g>
<!-- HomePage&#45;&gt;AppModule -->
<g id="edge10" class="edge">
<title>HomePage&#45;&gt;AppModule</title>
<path fill="none" stroke="black" d="M1246,-122.12C1246,-136.78 1246,-155 1246,-155 1246,-155 1401.91,-155 1401.91,-155"/>
<polygon fill="black" stroke="black" points="1401.91,-158.5 1411.91,-155 1401.91,-151.5 1401.91,-158.5"/>
</g>
<!-- HttpProgressDialog -->
<g id="node11" class="node">
<title>HttpProgressDialog</title>
<polygon fill="#ffffb3" stroke="black" points="1189.7,-122 1062.3,-122 1062.3,-86 1189.7,-86 1189.7,-122"/>
<text text-anchor="middle" x="1126" y="-99.8" font-family="Times,serif" font-size="14.00">HttpProgressDialog</text>
</g>
<!-- HttpProgressDialog&#45;&gt;AppModule -->
<g id="edge11" class="edge">
<title>HttpProgressDialog&#45;&gt;AppModule</title>
<path fill="none" stroke="black" d="M1126,-122.01C1126,-138.05 1126,-159 1126,-159 1126,-159 1402.13,-159 1402.13,-159"/>
<polygon fill="black" stroke="black" points="1402.13,-162.5 1412.13,-159 1402.13,-155.5 1402.13,-162.5"/>
</g>
<!-- LinkFormComponent -->
<g id="node12" class="node">
<title>LinkFormComponent</title>
<polygon fill="#ffffb3" stroke="black" points="1044.11,-122 905.89,-122 905.89,-86 1044.11,-86 1044.11,-122"/>
<text text-anchor="middle" x="975" y="-99.8" font-family="Times,serif" font-size="14.00">LinkFormComponent</text>
</g>
<!-- LinkFormComponent&#45;&gt;AppModule -->
<g id="edge12" class="edge">
<title>LinkFormComponent&#45;&gt;AppModule</title>
<path fill="none" stroke="black" d="M975,-122.03C975,-139.06 975,-162 975,-162 975,-162 1402.33,-162 1402.33,-162"/>
<polygon fill="black" stroke="black" points="1402.33,-165.5 1412.33,-162 1402.33,-158.5 1402.33,-165.5"/>
</g>
<!-- ModelCheckerPage -->
<g id="node13" class="node">
<title>ModelCheckerPage</title>
<polygon fill="#ffffb3" stroke="black" points="888.4,-122 761.6,-122 761.6,-86 888.4,-86 888.4,-122"/>
<text text-anchor="middle" x="825" y="-99.8" font-family="Times,serif" font-size="14.00">ModelCheckerPage</text>
</g>
<!-- ModelCheckerPage&#45;&gt;AppModule -->
<g id="edge13" class="edge">
<title>ModelCheckerPage&#45;&gt;AppModule</title>
<path fill="none" stroke="black" d="M825,-122.27C825,-140.56 825,-166 825,-166 825,-166 1402.24,-166 1402.24,-166"/>
<polygon fill="black" stroke="black" points="1402.24,-169.5 1412.24,-166 1402.24,-162.5 1402.24,-169.5"/>
</g>
<!-- NodeFormComponent -->
<g id="node14" class="node">
<title>NodeFormComponent</title>
<polygon fill="#ffffb3" stroke="black" points="743.99,-122 602.01,-122 602.01,-86 743.99,-86 743.99,-122"/>
<text text-anchor="middle" x="673" y="-99.8" font-family="Times,serif" font-size="14.00">NodeFormComponent</text>
</g>
<!-- NodeFormComponent&#45;&gt;AppModule -->
<g id="edge14" class="edge">
<title>NodeFormComponent&#45;&gt;AppModule</title>
<path fill="none" stroke="black" d="M673,-122.11C673,-141.34 673,-169 673,-169 673,-169 1402.29,-169 1402.29,-169"/>
<polygon fill="black" stroke="black" points="1402.29,-172.5 1412.29,-169 1402.29,-165.5 1402.29,-172.5"/>
</g>
<!-- ResultTreeDialog -->
<g id="node15" class="node">
<title>ResultTreeDialog</title>
<polygon fill="#ffffb3" stroke="black" points="583.52,-122 468.48,-122 468.48,-86 583.52,-86 583.52,-122"/>
<text text-anchor="middle" x="526" y="-99.8" font-family="Times,serif" font-size="14.00">ResultTreeDialog</text>
</g>
<!-- ResultTreeDialog&#45;&gt;AppModule -->
<g id="edge15" class="edge">
<title>ResultTreeDialog&#45;&gt;AppModule</title>
<path fill="none" stroke="black" d="M526,-122.13C526,-142.57 526,-173 526,-173 526,-173 1402.32,-173 1402.32,-173"/>
<polygon fill="black" stroke="black" points="1402.32,-176.5 1412.32,-173 1402.32,-169.5 1402.32,-176.5"/>
</g>
<!-- SaveGraphDialog -->
<g id="node16" class="node">
<title>SaveGraphDialog</title>
<polygon fill="#ffffb3" stroke="black" points="450.3,-122 333.7,-122 333.7,-86 450.3,-86 450.3,-122"/>
<text text-anchor="middle" x="392" y="-99.8" font-family="Times,serif" font-size="14.00">SaveGraphDialog</text>
</g>
<!-- SaveGraphDialog&#45;&gt;AppModule -->
<g id="edge16" class="edge">
<title>SaveGraphDialog&#45;&gt;AppModule</title>
<path fill="none" stroke="black" d="M392,-122.04C392,-143.66 392,-177 392,-177 392,-177 1402.04,-177 1402.04,-177"/>
<polygon fill="black" stroke="black" points="1402.04,-180.5 1412.04,-177 1402.04,-173.5 1402.04,-180.5"/>
</g>
<!-- SymbolEditorComponent -->
<g id="node17" class="node">
<title>SymbolEditorComponent</title>
<polygon fill="#ffffb3" stroke="black" points="315.89,-122 156.11,-122 156.11,-86 315.89,-86 315.89,-122"/>
<text text-anchor="middle" x="236" y="-99.8" font-family="Times,serif" font-size="14.00">SymbolEditorComponent</text>
</g>
<!-- SymbolEditorComponent&#45;&gt;AppModule -->
<g id="edge17" class="edge">
<title>SymbolEditorComponent&#45;&gt;AppModule</title>
<path fill="none" stroke="black" d="M236,-122.01C236,-144.49 236,-180 236,-180 236,-180 1402.07,-180 1402.07,-180"/>
<polygon fill="black" stroke="black" points="1402.07,-183.5 1412.07,-180 1402.07,-176.5 1402.07,-183.5"/>
</g>
<!-- TraceComponent -->
<g id="node18" class="node">
<title>TraceComponent</title>
<polygon fill="#ffffb3" stroke="black" points="137.69,-122 24.31,-122 24.31,-86 137.69,-86 137.69,-122"/>
<text text-anchor="middle" x="81" y="-99.8" font-family="Times,serif" font-size="14.00">TraceComponent</text>
</g>
<!-- TraceComponent&#45;&gt;AppModule -->
<g id="edge18" class="edge">
<title>TraceComponent&#45;&gt;AppModule</title>
<path fill="none" stroke="black" d="M81,-122.15C81,-145.76 81,-184 81,-184 81,-184 1402.16,-184 1402.16,-184"/>
<polygon fill="black" stroke="black" points="1402.16,-187.5 1412.16,-184 1402.16,-180.5 1402.16,-187.5"/>
</g>
<!-- AppComponent  -->
<g id="node22" class="node">
<title>AppComponent </title>
<polygon fill="#80b1d3" stroke="black" points="1508.44,-252 1399.56,-252 1399.56,-216 1508.44,-216 1508.44,-252"/>
<text text-anchor="middle" x="1454" y="-229.8" font-family="Times,serif" font-size="14.00">AppComponent </text>
</g>
<!-- AppModule&#45;&gt;AppComponent  -->
<g id="edge21" class="edge">
<title>AppModule&#45;&gt;AppComponent </title>
<path fill="none" stroke="black" stroke-dasharray="1,5" d="M1454,-187.11C1454,-187.11 1454,-205.99 1454,-205.99"/>
<polygon fill="black" stroke="black" points="1450.5,-205.99 1454,-215.99 1457.5,-205.99 1450.5,-205.99"/>
</g>
<!-- AppRoutingModule -->
<g id="node20" class="node">
<title>AppRoutingModule</title>
<polygon fill="#8dd3c7" stroke="black" points="2984.27,-122 2981.27,-126 2960.27,-126 2957.27,-122 2855.73,-122 2855.73,-86 2984.27,-86 2984.27,-122"/>
<text text-anchor="middle" x="2920" y="-99.8" font-family="Times,serif" font-size="14.00">AppRoutingModule</text>
</g>
<!-- AppRoutingModule&#45;&gt;AppModule -->
<g id="edge19" class="edge">
<title>AppRoutingModule&#45;&gt;AppModule</title>
<path fill="none" stroke="black" d="M2920,-122.15C2920,-145.76 2920,-184 2920,-184 2920,-184 1505.9,-184 1505.9,-184"/>
<polygon fill="black" stroke="black" points="1505.9,-180.5 1495.9,-184 1505.9,-187.5 1505.9,-180.5"/>
</g>
<!-- MaterialModule -->
<g id="node21" class="node">
<title>MaterialModule</title>
<polygon fill="#8dd3c7" stroke="black" points="2837.47,-122 2834.47,-126 2813.47,-126 2810.47,-122 2730.53,-122 2730.53,-86 2837.47,-86 2837.47,-122"/>
<text text-anchor="middle" x="2784" y="-99.8" font-family="Times,serif" font-size="14.00">MaterialModule</text>
</g>
<!-- MaterialModule&#45;&gt;AppModule -->
<g id="edge20" class="edge">
<title>MaterialModule&#45;&gt;AppModule</title>
<path fill="none" stroke="black" d="M2784,-122.01C2784,-144.49 2784,-180 2784,-180 2784,-180 1506,-180 1506,-180"/>
<polygon fill="black" stroke="black" points="1506,-176.5 1496,-180 1506,-183.5 1506,-176.5"/>
</g>
</g>
</svg>
